<?xml version="1.0" encoding="UTF-8"?>
<!-- Created with Inkscape (http://www.inkscape.org/) -->
<svg width="582.67" height="269.33" version="1.1" viewBox="0 0 582.66669 269.33334" xml:space="preserve" xmlns="http://www.w3.org/2000/svg" xmlns:cc="http://creativecommons.org/ns#" xmlns:dc="http://purl.org/dc/elements/1.1/" xmlns:rdf="http://www.w3.org/1999/02/22-rdf-syntax-ns#"><metadata><rdf:RDF><cc:Work rdf:about=""><dc:format>image/svg+xml</dc:format><dc:type rdf:resource="http://purl.org/dc/dcmitype/StillImage"/><dc:title/></cc:Work></rdf:RDF></metadata><defs><clipPath id="clipPath20"><path d="m0 0h437v202h-437z"/></clipPath></defs><g transform="matrix(1.3333 0 0 -1.3333 0 269.33)"><g clip-path="url(#clipPath20)"><g transform="matrix(1,0,0,-1,-53.5,242.5)"><path d="m452.46 98.239c22.9 28.019 11.581 71.292 5.0015 90.074" fill="none" stroke="#000" stroke-linecap="round" stroke-linejoin="round" stroke-miterlimit="10"/></g><path d="m401.06 46.735 5.6995 6.3652-5.5907 2.1781z"/><g transform="matrix(1,0,0,-1,-53.5,242.5)"><path d="m454.56 195.76 5.6995-6.3651-5.5907-2.1782z" fill="none" stroke="#000" stroke-miterlimit="10"/></g><path d="m387.58 114.7h49v-34h-49z" fill="#fff" fill-opacity=".8817"/><g transform="matrix(1 0 0 -1 407.58 97.696)"><text x="-15.391603" y="-2" fill="#000000" font-family="Helvetica" font-size="10px"><tspan x="-15.391603" y="-2">voltear</tspan></text>
</g><g transform="matrix(1 0 0 -1 412.08 97.696)"><text x="-35.948242" y="8.5" fill="#000000" font-family="Helvetica" font-size="10px"><tspan x="-35.948242" y="8.5">verticalmente</tspan></text>
</g><g transform="matrix(1,0,0,-1,-53.5,242.5)"><path d="m56.693 56.693h85.039v85.039h-85.039z" fill="none" stroke="#000" stroke-linecap="round" stroke-linejoin="round" stroke-miterlimit="10" stroke-width="2"/></g><g transform="matrix(1,0,0,-1,-53.5,242.5)"><path d="m67.323 56.693v85.039" fill="none" stroke="#000" stroke-linecap="round" stroke-linejoin="round" stroke-miterlimit="10"/></g><g transform="matrix(1,0,0,-1,-53.5,242.5)"><path d="m77.953 56.693v85.039" fill="none" stroke="#000" stroke-linecap="round" stroke-linejoin="round" stroke-miterlimit="10"/></g><g transform="matrix(1,0,0,-1,-53.5,242.5)"><path d="m88.583 56.693v85.039" fill="none" stroke="#000" stroke-linecap="round" stroke-linejoin="round" stroke-miterlimit="10"/></g><g transform="matrix(1,0,0,-1,-53.5,242.5)"><path d="m99.213 56.693v85.039" fill="none" stroke="#000" stroke-linecap="round" stroke-linejoin="round" stroke-miterlimit="10"/></g><g transform="matrix(1,0,0,-1,-53.5,242.5)"><path d="m109.84 56.693v85.039" fill="none" stroke="#000" stroke-linecap="round" stroke-linejoin="round" stroke-miterlimit="10"/></g><g transform="matrix(1,0,0,-1,-53.5,242.5)"><path d="m120.47 56.693v85.039" fill="none" stroke="#000" stroke-linecap="round" stroke-linejoin="round" stroke-miterlimit="10"/></g><g transform="matrix(1,0,0,-1,-53.5,242.5)"><path d="m131.1 56.693v85.039" fill="none" stroke="#000" stroke-linecap="round" stroke-linejoin="round" stroke-miterlimit="10"/></g><g transform="matrix(1,0,0,-1,-53.5,242.5)"><path d="m141.73 67.323h-85.039" fill="none" stroke="#000" stroke-linecap="round" stroke-linejoin="round" stroke-miterlimit="10"/></g><g transform="matrix(1,0,0,-1,-53.5,242.5)"><path d="m141.73 77.953h-85.039" fill="none" stroke="#000" stroke-linecap="round" stroke-linejoin="round" stroke-miterlimit="10"/></g><g transform="matrix(1,0,0,-1,-53.5,242.5)"><path d="m141.73 88.583h-85.039" fill="none" stroke="#000" stroke-linecap="round" stroke-linejoin="round" stroke-miterlimit="10"/></g><g transform="matrix(1,0,0,-1,-53.5,242.5)"><path d="m141.73 99.213h-85.039" fill="none" stroke="#000" stroke-linecap="round" stroke-linejoin="round" stroke-miterlimit="10"/></g><g transform="matrix(1,0,0,-1,-53.5,242.5)"><path d="m141.73 109.84h-85.039" fill="none" stroke="#000" stroke-linecap="round" stroke-linejoin="round" stroke-miterlimit="10"/></g><g transform="matrix(1,0,0,-1,-53.5,242.5)"><path d="m141.73 120.47h-85.039" fill="none" stroke="#000" stroke-linecap="round" stroke-linejoin="round" stroke-miterlimit="10"/></g><g transform="matrix(1,0,0,-1,-53.5,242.5)"><path d="m141.73 131.1h-85.039" fill="none" stroke="#000" stroke-linecap="round" stroke-linejoin="round" stroke-miterlimit="10"/></g><path d="m11.347 183.01c1.4645-1.4644 1.4645-3.8388 0-5.3033-1.4645-1.4644-3.8388-1.4644-5.3033 0-1.4645 1.4645-1.4645 3.8389 0 5.3033 1.4645 1.4645 3.8388 1.4645 5.3033 0" fill="#0073cf"/><g transform="matrix(1,0,0,-1,-53.5,242.5)"><path d="m64.847 59.494c1.4645 1.4645 1.4645 3.8388 0 5.3033-1.4645 1.4645-3.8388 1.4645-5.3033 0-1.4645-1.4645-1.4645-3.8388 0-5.3033 1.4645-1.4645 3.8388-1.4645 5.3033 0" fill="none" stroke="#000" stroke-linecap="round" stroke-linejoin="round" stroke-miterlimit="10"/></g><path d="m21.977 140.44c1.4645-1.4645 1.4645-3.8388 0-5.3033s-3.8388-1.4645-5.3033 0-1.4645 3.8388 0 5.3033 3.8388 1.4645 5.3033 0" fill="#0073cf"/><g transform="matrix(1,0,0,-1,-53.5,242.5)"><path d="m75.477 102.06c1.4645 1.4645 1.4645 3.8388 0 5.3033s-3.8388 1.4645-5.3033 0-1.4645-3.8388 0-5.3033 3.8388-1.4645 5.3033 0" fill="none" stroke="#000" stroke-linecap="round" stroke-linejoin="round" stroke-miterlimit="10"/></g><path d="m32.607 108.55c1.4645-1.4644 1.4645-3.8388 0-5.3033-1.4645-1.4644-3.8388-1.4644-5.3033 0-1.4645 1.4645-1.4645 3.8389 0 5.3033 1.4645 1.4645 3.8388 1.4645 5.3033 0" fill="#0073cf"/><g transform="matrix(1,0,0,-1,-53.5,242.5)"><path d="m86.107 133.95c1.4645 1.4644 1.4645 3.8388 0 5.3033-1.4645 1.4644-3.8388 1.4644-5.3033 0-1.4645-1.4645-1.4645-3.8389 0-5.3033 1.4645-1.4645 3.8388-1.4645 5.3033 0" fill="none" stroke="#000" stroke-linecap="round" stroke-linejoin="round" stroke-miterlimit="10"/></g><path d="m43.237 129.81c1.4645-1.4645 1.4645-3.8389 0-5.3033-1.4645-1.4645-3.8388-1.4645-5.3033 0-1.4645 1.4644-1.4645 3.8388 0 5.3033 1.4645 1.4644 3.8388 1.4644 5.3033 0" fill="#0073cf"/><g transform="matrix(1,0,0,-1,-53.5,242.5)"><path d="m96.737 112.69c1.4645 1.4645 1.4645 3.8389 0 5.3033-1.4645 1.4645-3.8388 1.4645-5.3033 0-1.4645-1.4644-1.4645-3.8388 0-5.3033 1.4645-1.4644 3.8388-1.4644 5.3033 0" fill="none" stroke="#000" stroke-linecap="round" stroke-linejoin="round" stroke-miterlimit="10"/></g><path d="m53.867 161.7c1.4645-1.4645 1.4645-3.8389 0-5.3033-1.4645-1.4645-3.8388-1.4645-5.3033 0-1.4645 1.4644-1.4645 3.8388 0 5.3033 1.4645 1.4644 3.8388 1.4644 5.3033 0" fill="#0073cf"/><g transform="matrix(1,0,0,-1,-53.5,242.5)"><path d="m107.37 80.804c1.4645 1.4645 1.4645 3.8388 0 5.3033-1.4645 1.4645-3.8388 1.4645-5.3033 0-1.4645-1.4645-1.4645-3.8388 0-5.3033 1.4645-1.4645 3.8388-1.4645 5.3033 0" fill="none" stroke="#000" stroke-linecap="round" stroke-linejoin="round" stroke-miterlimit="10"/></g><path d="m64.497 119.18c1.4645-1.4645 1.4645-3.8389 0-5.3033-1.4645-1.4645-3.8388-1.4645-5.3033 0-1.4645 1.4644-1.4645 3.8388 0 5.3033 1.4645 1.4644 3.8388 1.4644 5.3033 0" fill="#0073cf"/><g transform="matrix(1,0,0,-1,-53.5,242.5)"><path d="m118 123.32c1.4645 1.4645 1.4645 3.8389 0 5.3033-1.4644 1.4645-3.8388 1.4645-5.3033 0-1.4644-1.4644-1.4644-3.8388 0-5.3033 1.4645-1.4644 3.8389-1.4644 5.3033 0" fill="none" stroke="#000" stroke-linecap="round" stroke-linejoin="round" stroke-miterlimit="10"/></g><path d="m75.127 172.33c1.4645-1.4645 1.4645-3.8389 0-5.3033-1.4645-1.4645-3.8388-1.4645-5.3033 0-1.4645 1.4644-1.4645 3.8388 0 5.3033 1.4645 1.4644 3.8388 1.4644 5.3033 0" fill="#0073cf"/><g transform="matrix(1,0,0,-1,-53.5,242.5)"><path d="m128.63 70.174c1.4645 1.4645 1.4645 3.8388 0 5.3033-1.4644 1.4645-3.8388 1.4645-5.3033 0-1.4644-1.4645-1.4644-3.8388 0-5.3033 1.4645-1.4645 3.8389-1.4645 5.3033 0" fill="none" stroke="#000" stroke-linecap="round" stroke-linejoin="round" stroke-miterlimit="10"/></g><path d="m85.647 151.07c1.4645-1.4644 1.4645-3.8388 0-5.3033-1.4645-1.4644-3.8388-1.4644-5.3033 0-1.4645 1.4645-1.4645 3.8389 0 5.3033 1.4645 1.4645 3.8388 1.4645 5.3033 0" fill="#0073cf"/><g transform="matrix(1,0,0,-1,-53.5,242.5)"><path d="m139.15 91.433c1.4645 1.4645 1.4645 3.8388 0 5.3033s-3.8388 1.4645-5.3033 0-1.4645-3.8388 0-5.3033 3.8388-1.4645 5.3033 0" fill="none" stroke="#000" stroke-linecap="round" stroke-linejoin="round" stroke-miterlimit="10"/></g><g transform="matrix(1,0,0,-1,-53.5,242.5)"><path d="m240.94 56.693v85.039h-85.039v-85.039z" fill="none" stroke="#000" stroke-linecap="round" stroke-linejoin="round" stroke-miterlimit="10" stroke-width="2"/></g><g transform="matrix(1,0,0,-1,-53.5,242.5)"><path d="m240.94 67.323h-85.039" fill="none" stroke="#000" stroke-linecap="round" stroke-linejoin="round" stroke-miterlimit="10"/></g><g transform="matrix(1,0,0,-1,-53.5,242.5)"><path d="m240.94 77.953h-85.039" fill="none" stroke="#000" stroke-linecap="round" stroke-linejoin="round" stroke-miterlimit="10"/></g><g transform="matrix(1,0,0,-1,-53.5,242.5)"><path d="m240.94 88.583h-85.039" fill="none" stroke="#000" stroke-linecap="round" stroke-linejoin="round" stroke-miterlimit="10"/></g><g transform="matrix(1,0,0,-1,-53.5,242.5)"><path d="m240.94 99.213h-85.039" fill="none" stroke="#000" stroke-linecap="round" stroke-linejoin="round" stroke-miterlimit="10"/></g><g transform="matrix(1,0,0,-1,-53.5,242.5)"><path d="m240.94 109.84h-85.039" fill="none" stroke="#000" stroke-linecap="round" stroke-linejoin="round" stroke-miterlimit="10"/></g><g transform="matrix(1,0,0,-1,-53.5,242.5)"><path d="m240.94 120.47h-85.039" fill="none" stroke="#000" stroke-linecap="round" stroke-linejoin="round" stroke-miterlimit="10"/></g><g transform="matrix(1,0,0,-1,-53.5,242.5)"><path d="m240.94 131.1h-85.039" fill="none" stroke="#000" stroke-linecap="round" stroke-linejoin="round" stroke-miterlimit="10"/></g><g transform="matrix(1,0,0,-1,-53.5,242.5)"><path d="m230.31 141.73v-85.039" fill="none" stroke="#000" stroke-linecap="round" stroke-linejoin="round" stroke-miterlimit="10"/></g><g transform="matrix(1,0,0,-1,-53.5,242.5)"><path d="m219.68 141.73v-85.039" fill="none" stroke="#000" stroke-linecap="round" stroke-linejoin="round" stroke-miterlimit="10"/></g><g transform="matrix(1,0,0,-1,-53.5,242.5)"><path d="m209.06 141.73v-85.039" fill="none" stroke="#000" stroke-linecap="round" stroke-linejoin="round" stroke-miterlimit="10"/></g><g transform="matrix(1,0,0,-1,-53.5,242.5)"><path d="m198.43 141.73v-85.039" fill="none" stroke="#000" stroke-linecap="round" stroke-linejoin="round" stroke-miterlimit="10"/></g><g transform="matrix(1,0,0,-1,-53.5,242.5)"><path d="m187.8 141.73v-85.039" fill="none" stroke="#000" stroke-linecap="round" stroke-linejoin="round" stroke-miterlimit="10"/></g><g transform="matrix(1,0,0,-1,-53.5,242.5)"><path d="m177.17 141.73v-85.039" fill="none" stroke="#000" stroke-linecap="round" stroke-linejoin="round" stroke-miterlimit="10"/></g><g transform="matrix(1,0,0,-1,-53.5,242.5)"><path d="m166.54 141.73v-85.039" fill="none" stroke="#000" stroke-linecap="round" stroke-linejoin="round" stroke-miterlimit="10"/></g><path d="m184.64 177.65c-1.4645-1.4645-3.8388-1.4645-5.3033 0-1.4645 1.4644-1.4645 3.8388 0 5.3033 1.4645 1.4644 3.8388 1.4644 5.3033 0 1.4645-1.4645 1.4645-3.8389 0-5.3033" fill="#0073cf"/><g transform="matrix(1,0,0,-1,-53.5,242.5)"><path d="m238.14 64.847c-1.4645 1.4645-3.8388 1.4645-5.3033 0s-1.4645-3.8388 0-5.3033 3.8388-1.4645 5.3033 0 1.4645 3.8388 0 5.3033" fill="none" stroke="#000" stroke-linecap="round" stroke-linejoin="round" stroke-miterlimit="10"/></g><path d="m142.07 167.02c-1.4645-1.4645-3.8389-1.4645-5.3033 0-1.4645 1.4644-1.4645 3.8388 0 5.3033 1.4644 1.4644 3.8388 1.4644 5.3033 0 1.4644-1.4645 1.4644-3.8389 0-5.3033" fill="#0073cf"/><g transform="matrix(1,0,0,-1,-53.5,242.5)"><path d="m195.57 75.477c-1.4645 1.4645-3.8389 1.4645-5.3033 0-1.4645-1.4645-1.4645-3.8388 0-5.3033 1.4644-1.4645 3.8388-1.4645 5.3033 0 1.4644 1.4645 1.4644 3.8388 0 5.3033" fill="none" stroke="#000" stroke-linecap="round" stroke-linejoin="round" stroke-miterlimit="10"/></g><path d="m110.18 156.39c-1.4645-1.4644-3.8388-1.4644-5.3033 0-1.4645 1.4645-1.4645 3.8389 0 5.3033 1.4645 1.4645 3.8388 1.4645 5.3033 0 1.4645-1.4644 1.4645-3.8388 0-5.3033" fill="#0073cf"/><g transform="matrix(1,0,0,-1,-53.5,242.5)"><path d="m163.68 86.107c-1.4645 1.4645-3.8388 1.4645-5.3033 0s-1.4645-3.8388 0-5.3033 3.8388-1.4645 5.3033 0 1.4645 3.8388 0 5.3033" fill="none" stroke="#000" stroke-linecap="round" stroke-linejoin="round" stroke-miterlimit="10"/></g><path d="m131.44 145.76c-1.4645-1.4644-3.8389-1.4644-5.3033 0-1.4645 1.4645-1.4645 3.8389 0 5.3033 1.4644 1.4645 3.8388 1.4645 5.3033 0 1.4644-1.4644 1.4644-3.8388 0-5.3033" fill="#0073cf"/><g transform="matrix(1,0,0,-1,-53.5,242.5)"><path d="m184.94 96.737c-1.4645 1.4645-3.8389 1.4645-5.3033 0-1.4645-1.4645-1.4645-3.8388 0-5.3033 1.4644-1.4645 3.8388-1.4645 5.3033 0 1.4644 1.4645 1.4644 3.8388 0 5.3033" fill="none" stroke="#000" stroke-linecap="round" stroke-linejoin="round" stroke-miterlimit="10"/></g><path d="m163.33 135.13c-1.4644-1.4645-3.8388-1.4645-5.3033 0-1.4644 1.4645-1.4644 3.8388 0 5.3033 1.4645 1.4645 3.8389 1.4645 5.3033 0 1.4645-1.4645 1.4645-3.8388 0-5.3033" fill="#0073cf"/><g transform="matrix(1,0,0,-1,-53.5,242.5)"><path d="m216.83 107.37c-1.4644 1.4645-3.8388 1.4645-5.3033 0-1.4644-1.4645-1.4644-3.8388 0-5.3033 1.4645-1.4645 3.8389-1.4645 5.3033 0 1.4645 1.4645 1.4645 3.8388 0 5.3033" fill="none" stroke="#000" stroke-linecap="round" stroke-linejoin="round" stroke-miterlimit="10"/></g><path d="m120.81 124.5c-1.4644-1.4645-3.8388-1.4645-5.3033 0-1.4644 1.4644-1.4644 3.8388 0 5.3033 1.4645 1.4644 3.8389 1.4644 5.3033 0 1.4645-1.4645 1.4645-3.8389 0-5.3033" fill="#0073cf"/><g transform="matrix(1,0,0,-1,-53.5,242.5)"><path d="m174.31 118c-1.4644 1.4645-3.8388 1.4645-5.3033 0-1.4644-1.4644-1.4644-3.8388 0-5.3033 1.4645-1.4644 3.8389-1.4644 5.3033 0 1.4645 1.4645 1.4645 3.8389 0 5.3033" fill="none" stroke="#000" stroke-linecap="round" stroke-linejoin="round" stroke-miterlimit="10"/></g><path d="m173.96 113.87c-1.4644-1.4645-3.8388-1.4645-5.3033 0-1.4644 1.4644-1.4644 3.8388 0 5.3033 1.4645 1.4644 3.8389 1.4644 5.3033 0 1.4645-1.4645 1.4645-3.8389 0-5.3033" fill="#0073cf"/><g transform="matrix(1,0,0,-1,-53.5,242.5)"><path d="m227.46 128.63c-1.4644 1.4645-3.8388 1.4645-5.3033 0-1.4644-1.4644-1.4644-3.8388 0-5.3033 1.4645-1.4644 3.8389-1.4644 5.3033 0 1.4645 1.4645 1.4645 3.8389 0 5.3033" fill="none" stroke="#000" stroke-linecap="round" stroke-linejoin="round" stroke-miterlimit="10"/></g><path d="m152.7 103.35c-1.4645-1.4645-3.8388-1.4645-5.3033 0s-1.4645 3.8388 0 5.3033 3.8388 1.4645 5.3033 0 1.4645-3.8388 0-5.3033" fill="#0073cf"/><g transform="matrix(1,0,0,-1,-53.5,242.5)"><path d="m206.2 139.15c-1.4645 1.4645-3.8388 1.4645-5.3033 0s-1.4645-3.8388 0-5.3033 3.8388-1.4645 5.3033 0 1.4645 3.8388 0 5.3033" fill="none" stroke="#000" stroke-linecap="round" stroke-linejoin="round" stroke-miterlimit="10"/></g><g transform="matrix(1,0,0,-1,-53.5,242.5)"><path d="m340.16 141.73h-85.039v-85.039h85.039z" fill="none" stroke="#000" stroke-linecap="round" stroke-linejoin="round" stroke-miterlimit="10" stroke-width="2"/></g><g transform="matrix(1,0,0,-1,-53.5,242.5)"><path d="m329.53 141.73v-85.039" fill="none" stroke="#000" stroke-linecap="round" stroke-linejoin="round" stroke-miterlimit="10"/></g><g transform="matrix(1,0,0,-1,-53.5,242.5)"><path d="m318.9 141.73v-85.039" fill="none" stroke="#000" stroke-linecap="round" stroke-linejoin="round" stroke-miterlimit="10"/></g><g transform="matrix(1,0,0,-1,-53.5,242.5)"><path d="m308.27 141.73v-85.039" fill="none" stroke="#000" stroke-linecap="round" stroke-linejoin="round" stroke-miterlimit="10"/></g><g transform="matrix(1,0,0,-1,-53.5,242.5)"><path d="m297.64 141.73v-85.039" fill="none" stroke="#000" stroke-linecap="round" stroke-linejoin="round" stroke-miterlimit="10"/></g><g transform="matrix(1,0,0,-1,-53.5,242.5)"><path d="m287.01 141.73v-85.039" fill="none" stroke="#000" stroke-linecap="round" stroke-linejoin="round" stroke-miterlimit="10"/></g><g transform="matrix(1,0,0,-1,-53.5,242.5)"><path d="m276.38 141.73v-85.039" fill="none" stroke="#000" stroke-linecap="round" stroke-linejoin="round" stroke-miterlimit="10"/></g><g transform="matrix(1,0,0,-1,-53.5,242.5)"><path d="m265.75 141.73v-85.039" fill="none" stroke="#000" stroke-linecap="round" stroke-linejoin="round" stroke-miterlimit="10"/></g><g transform="matrix(1,0,0,-1,-53.5,242.5)"><path d="m255.12 131.1h85.039" fill="none" stroke="#000" stroke-linecap="round" stroke-linejoin="round" stroke-miterlimit="10"/></g><g transform="matrix(1,0,0,-1,-53.5,242.5)"><path d="m255.12 120.47h85.039" fill="none" stroke="#000" stroke-linecap="round" stroke-linejoin="round" stroke-miterlimit="10"/></g><g transform="matrix(1,0,0,-1,-53.5,242.5)"><path d="m255.12 109.84h85.039" fill="none" stroke="#000" stroke-linecap="round" stroke-linejoin="round" stroke-miterlimit="10"/></g><g transform="matrix(1,0,0,-1,-53.5,242.5)"><path d="m255.12 99.213h85.039" fill="none" stroke="#000" stroke-linecap="round" stroke-linejoin="round" stroke-miterlimit="10"/></g><g transform="matrix(1,0,0,-1,-53.5,242.5)"><path d="m255.12 88.583h85.039" fill="none" stroke="#000" stroke-linecap="round" stroke-linejoin="round" stroke-miterlimit="10"/></g><g transform="matrix(1,0,0,-1,-53.5,242.5)"><path d="m255.12 77.953h85.039" fill="none" stroke="#000" stroke-linecap="round" stroke-linejoin="round" stroke-miterlimit="10"/></g><g transform="matrix(1,0,0,-1,-53.5,242.5)"><path d="m255.12 67.323h85.039" fill="none" stroke="#000" stroke-linecap="round" stroke-linejoin="round" stroke-miterlimit="10"/></g><path d="m278.5 103.57c-1.4644 1.4645-1.4644 3.8388 0 5.3033 1.4645 1.4645 3.8389 1.4645 5.3033 0 1.4645-1.4645 1.4645-3.8388 0-5.3033-1.4644-1.4645-3.8388-1.4645-5.3033 0" fill="#0073cf"/><g transform="matrix(1,0,0,-1,-53.5,242.5)"><path d="m332 138.93c-1.4644-1.4645-1.4644-3.8388 0-5.3033 1.4645-1.4645 3.8389-1.4645 5.3033 0 1.4645 1.4645 1.4645 3.8388 0 5.3033-1.4644 1.4645-3.8388 1.4645-5.3033 0" fill="none" stroke="#000" stroke-linecap="round" stroke-linejoin="round" stroke-miterlimit="10"/></g><path d="m267.87 146.14c-1.4644 1.4645-1.4644 3.8388 0 5.3033 1.4645 1.4645 3.8389 1.4645 5.3033 0 1.4645-1.4645 1.4645-3.8388 0-5.3033-1.4644-1.4645-3.8388-1.4645-5.3033 0" fill="#0073cf"/><g transform="matrix(1,0,0,-1,-53.5,242.5)"><path d="m321.37 96.362c-1.4644-1.4645-1.4644-3.8388 0-5.3033 1.4645-1.4645 3.8389-1.4645 5.3033 0 1.4645 1.4645 1.4645 3.8388 0 5.3033-1.4644 1.4645-3.8388 1.4645-5.3033 0" fill="none" stroke="#000" stroke-linecap="round" stroke-linejoin="round" stroke-miterlimit="10"/></g><path d="m257.24 178.03c-1.4645 1.4645-1.4645 3.8388 0 5.3033s3.8388 1.4645 5.3033 0 1.4645-3.8388 0-5.3033-3.8388-1.4645-5.3033 0" fill="#0073cf"/><g transform="matrix(1,0,0,-1,-53.5,242.5)"><path d="m310.74 64.472c-1.4645-1.4645-1.4645-3.8388 0-5.3033 1.4645-1.4645 3.8388-1.4645 5.3033 0 1.4645 1.4645 1.4645 3.8388 0 5.3033-1.4645 1.4645-3.8388 1.4645-5.3033 0" fill="none" stroke="#000" stroke-linecap="round" stroke-linejoin="round" stroke-miterlimit="10"/></g><path d="m246.61 156.77c-1.4645 1.4645-1.4645 3.8389 0 5.3033 1.4645 1.4645 3.8388 1.4645 5.3033 0 1.4645-1.4644 1.4645-3.8388 0-5.3033-1.4645-1.4644-3.8388-1.4644-5.3033 0" fill="#0073cf"/><g transform="matrix(1,0,0,-1,-53.5,242.5)"><path d="m300.11 85.732c-1.4645-1.4645-1.4645-3.8388 0-5.3033s3.8388-1.4645 5.3033 0 1.4645 3.8388 0 5.3033-3.8388 1.4645-5.3033 0" fill="none" stroke="#000" stroke-linecap="round" stroke-linejoin="round" stroke-miterlimit="10"/></g><path d="m235.98 124.88c-1.4645 1.4644-1.4645 3.8388 0 5.3033 1.4644 1.4644 3.8388 1.4644 5.3033 0 1.4644-1.4645 1.4644-3.8389 0-5.3033-1.4645-1.4645-3.8389-1.4645-5.3033 0" fill="#0073cf"/><g transform="matrix(1,0,0,-1,-53.5,242.5)"><path d="m289.48 117.62c-1.4645-1.4644-1.4645-3.8388 0-5.3033 1.4644-1.4644 3.8388-1.4644 5.3033 0 1.4644 1.4645 1.4644 3.8389 0 5.3033-1.4645 1.4645-3.8389 1.4645-5.3033 0" fill="none" stroke="#000" stroke-linecap="round" stroke-linejoin="round" stroke-miterlimit="10"/></g><path d="m225.35 167.4c-1.4644 1.4644-1.4644 3.8388 0 5.3032 1.4645 1.4645 3.8389 1.4645 5.3033 0 1.4645-1.4644 1.4645-3.8388 0-5.3032-1.4644-1.4645-3.8388-1.4645-5.3033 0" fill="#0073cf"/><g transform="matrix(1,0,0,-1,-53.5,242.5)"><path d="m278.85 75.102c-1.4644-1.4645-1.4644-3.8388 0-5.3033 1.4645-1.4645 3.8389-1.4645 5.3033 0 1.4645 1.4645 1.4645 3.8388 0 5.3033-1.4644 1.4645-3.8388 1.4645-5.3033 0" fill="none" stroke="#000" stroke-linecap="round" stroke-linejoin="round" stroke-miterlimit="10"/></g><path d="m214.72 114.25c-1.4645 1.4644-1.4645 3.8388 0 5.3032 1.4645 1.4645 3.8389 1.4645 5.3033 0 1.4645-1.4644 1.4645-3.8388 0-5.3032-1.4644-1.4645-3.8388-1.4645-5.3033 0" fill="#0073cf"/><g transform="matrix(1,0,0,-1,-53.5,242.5)"><path d="m268.22 128.25c-1.4645-1.4644-1.4645-3.8388 0-5.3032 1.4645-1.4645 3.8389-1.4645 5.3033 0 1.4645 1.4644 1.4645 3.8388 0 5.3032-1.4644 1.4645-3.8388 1.4645-5.3033 0" fill="none" stroke="#000" stroke-linecap="round" stroke-linejoin="round" stroke-miterlimit="10"/></g><path d="m204.2 135.51c-1.4644 1.4645-1.4644 3.8388 0 5.3033 1.4645 1.4645 3.8389 1.4645 5.3033 0 1.4645-1.4645 1.4645-3.8388 0-5.3033-1.4644-1.4645-3.8388-1.4645-5.3033 0" fill="#0073cf"/><g transform="matrix(1,0,0,-1,-53.5,242.5)"><path d="m257.7 106.99c-1.4644-1.4645-1.4644-3.8388 0-5.3033 1.4645-1.4645 3.8389-1.4645 5.3033 0 1.4645 1.4645 1.4645 3.8388 0 5.3033-1.4644 1.4645-3.8388 1.4645-5.3033 0" fill="none" stroke="#000" stroke-linecap="round" stroke-linejoin="round" stroke-miterlimit="10"/></g><g transform="matrix(1,0,0,-1,-53.5,242.5)"><path d="m354.33 141.73v-85.039h85.039v85.039z" fill="none" stroke="#000" stroke-linecap="round" stroke-linejoin="round" stroke-miterlimit="10" stroke-width="2"/></g><g transform="matrix(1,0,0,-1,-53.5,242.5)"><path d="m354.33 131.1h85.039" fill="none" stroke="#000" stroke-linecap="round" stroke-linejoin="round" stroke-miterlimit="10"/></g><g transform="matrix(1,0,0,-1,-53.5,242.5)"><path d="m354.33 120.47h85.039" fill="none" stroke="#000" stroke-linecap="round" stroke-linejoin="round" stroke-miterlimit="10"/></g><g transform="matrix(1,0,0,-1,-53.5,242.5)"><path d="m354.33 109.84h85.039" fill="none" stroke="#000" stroke-linecap="round" stroke-linejoin="round" stroke-miterlimit="10"/></g><g transform="matrix(1,0,0,-1,-53.5,242.5)"><path d="m354.33 99.213h85.039" fill="none" stroke="#000" stroke-linecap="round" stroke-linejoin="round" stroke-miterlimit="10"/></g><g transform="matrix(1,0,0,-1,-53.5,242.5)"><path d="m354.33 88.583h85.039" fill="none" stroke="#000" stroke-linecap="round" stroke-linejoin="round" stroke-miterlimit="10"/></g><g transform="matrix(1,0,0,-1,-53.5,242.5)"><path d="m354.33 77.953h85.039" fill="none" stroke="#000" stroke-linecap="round" stroke-linejoin="round" stroke-miterlimit="10"/></g><g transform="matrix(1,0,0,-1,-53.5,242.5)"><path d="m354.33 67.323h85.039" fill="none" stroke="#000" stroke-linecap="round" stroke-linejoin="round" stroke-miterlimit="10"/></g><g transform="matrix(1,0,0,-1,-53.5,242.5)"><path d="m364.96 56.693v85.039" fill="none" stroke="#000" stroke-linecap="round" stroke-linejoin="round" stroke-miterlimit="10"/></g><g transform="matrix(1,0,0,-1,-53.5,242.5)"><path d="m375.59 56.693v85.039" fill="none" stroke="#000" stroke-linecap="round" stroke-linejoin="round" stroke-miterlimit="10"/></g><g transform="matrix(1,0,0,-1,-53.5,242.5)"><path d="m386.22 56.693v85.039" fill="none" stroke="#000" stroke-linecap="round" stroke-linejoin="round" stroke-miterlimit="10"/></g><g transform="matrix(1,0,0,-1,-53.5,242.5)"><path d="m396.85 56.693v85.039" fill="none" stroke="#000" stroke-linecap="round" stroke-linejoin="round" stroke-miterlimit="10"/></g><g transform="matrix(1,0,0,-1,-53.5,242.5)"><path d="m407.48 56.693v85.039" fill="none" stroke="#000" stroke-linecap="round" stroke-linejoin="round" stroke-miterlimit="10"/></g><g transform="matrix(1,0,0,-1,-53.5,242.5)"><path d="m418.11 56.693v85.039" fill="none" stroke="#000" stroke-linecap="round" stroke-linejoin="round" stroke-miterlimit="10"/></g><g transform="matrix(1,0,0,-1,-53.5,242.5)"><path d="m428.74 56.693v85.039" fill="none" stroke="#000" stroke-linecap="round" stroke-linejoin="round" stroke-miterlimit="10"/></g><path d="m303.63 108.92c1.4644 1.4645 3.8388 1.4645 5.3033 0 1.4644-1.4644 1.4644-3.8388 0-5.3033-1.4645-1.4644-3.8389-1.4644-5.3033 0-1.4645 1.4645-1.4645 3.8389 0 5.3033" fill="#0073cf"/><g transform="matrix(1,0,0,-1,-53.5,242.5)"><path d="m357.13 133.58c1.4644-1.4645 3.8388-1.4645 5.3033 0 1.4644 1.4644 1.4644 3.8388 0 5.3033-1.4645 1.4644-3.8389 1.4644-5.3033 0-1.4645-1.4645-1.4645-3.8389 0-5.3033" fill="none" stroke="#000" stroke-linecap="round" stroke-linejoin="round" stroke-miterlimit="10"/></g><path d="m346.2 119.55c1.4644 1.4644 3.8388 1.4644 5.3033 0 1.4645-1.4645 1.4645-3.8389 0-5.3033-1.4645-1.4645-3.8389-1.4645-5.3033 0-1.4645 1.4644-1.4645 3.8388 0 5.3033" fill="#0073cf"/><g transform="matrix(1,0,0,-1,-53.5,242.5)"><path d="m399.7 122.95c1.4644-1.4644 3.8388-1.4644 5.3033 0 1.4645 1.4645 1.4645 3.8389 0 5.3033-1.4645 1.4645-3.8389 1.4645-5.3033 0-1.4645-1.4644-1.4645-3.8388 0-5.3033" fill="none" stroke="#000" stroke-linecap="round" stroke-linejoin="round" stroke-miterlimit="10"/></g><path d="m378.09 130.18c1.4644 1.4644 3.8388 1.4644 5.3032 0 1.4645-1.4645 1.4645-3.8389 0-5.3033-1.4644-1.4645-3.8388-1.4645-5.3032 0-1.4645 1.4644-1.4645 3.8388 0 5.3033" fill="#0073cf"/><g transform="matrix(1,0,0,-1,-53.5,242.5)"><path d="m431.59 112.32c1.4644-1.4644 3.8388-1.4644 5.3032 0 1.4645 1.4645 1.4645 3.8389 0 5.3033-1.4644 1.4645-3.8388 1.4645-5.3032 0-1.4645-1.4644-1.4645-3.8388 0-5.3033" fill="none" stroke="#000" stroke-linecap="round" stroke-linejoin="round" stroke-miterlimit="10"/></g><path d="m356.83 140.81c1.4645 1.4645 3.8388 1.4645 5.3033 0s1.4645-3.8388 0-5.3033-3.8388-1.4645-5.3033 0-1.4645 3.8388 0 5.3033" fill="#0073cf"/><g transform="matrix(1,0,0,-1,-53.5,242.5)"><path d="m410.33 101.69c1.4645-1.4645 3.8388-1.4645 5.3033 0s1.4645 3.8388 0 5.3033-3.8388 1.4645-5.3033 0-1.4645-3.8388 0-5.3033" fill="none" stroke="#000" stroke-linecap="round" stroke-linejoin="round" stroke-miterlimit="10"/></g><path d="m324.94 151.44c1.4645 1.4645 3.8389 1.4645 5.3033 0 1.4645-1.4645 1.4645-3.8388 0-5.3033-1.4644-1.4645-3.8388-1.4645-5.3033 0-1.4644 1.4645-1.4644 3.8388 0 5.3033" fill="#0073cf"/><g transform="matrix(1,0,0,-1,-53.5,242.5)"><path d="m378.44 91.058c1.4645-1.4645 3.8389-1.4645 5.3033 0 1.4645 1.4645 1.4645 3.8388 0 5.3033-1.4644 1.4645-3.8388 1.4645-5.3033 0-1.4644-1.4645-1.4644-3.8388 0-5.3033" fill="none" stroke="#000" stroke-linecap="round" stroke-linejoin="round" stroke-miterlimit="10"/></g><path d="m367.46 162.07c1.4645 1.4645 3.8389 1.4645 5.3033 0 1.4645-1.4644 1.4645-3.8388 0-5.3033-1.4644-1.4644-3.8388-1.4644-5.3033 0-1.4645 1.4645-1.4645 3.8389 0 5.3033" fill="#0073cf"/><g transform="matrix(1,0,0,-1,-53.5,242.5)"><path d="m420.96 80.429c1.4645-1.4645 3.8389-1.4645 5.3033 0 1.4645 1.4645 1.4645 3.8388 0 5.3033-1.4644 1.4645-3.8388 1.4645-5.3033 0-1.4645-1.4645-1.4645-3.8388 0-5.3033" fill="none" stroke="#000" stroke-linecap="round" stroke-linejoin="round" stroke-miterlimit="10"/></g><path d="m314.31 172.7c1.4645 1.4644 3.8388 1.4644 5.3033 0 1.4645-1.4645 1.4645-3.8389 0-5.3033-1.4645-1.4645-3.8388-1.4645-5.3033 0-1.4645 1.4644-1.4645 3.8388 0 5.3033" fill="#0073cf"/><g transform="matrix(1,0,0,-1,-53.5,242.5)"><path d="m367.81 69.799c1.4645-1.4645 3.8388-1.4645 5.3033 0s1.4645 3.8388 0 5.3033-3.8388 1.4645-5.3033 0-1.4645-3.8388 0-5.3033" fill="none" stroke="#000" stroke-linecap="round" stroke-linejoin="round" stroke-miterlimit="10"/></g><path d="m335.57 183.22c1.4644 1.4645 3.8388 1.4645 5.3033 0 1.4644-1.4644 1.4644-3.8388 0-5.3033-1.4645-1.4644-3.8389-1.4644-5.3033 0-1.4645 1.4645-1.4645 3.8389 0 5.3033" fill="#0073cf"/><g transform="matrix(1,0,0,-1,-53.5,242.5)"><path d="m389.07 59.278c1.4644-1.4645 3.8388-1.4645 5.3033 0 1.4644 1.4645 1.4644 3.8388 0 5.3033-1.4645 1.4645-3.8389 1.4645-5.3033 0-1.4645-1.4645-1.4645-3.8388 0-5.3033" fill="none" stroke="#000" stroke-linecap="round" stroke-linejoin="round" stroke-miterlimit="10"/></g><g transform="matrix(1,0,0,-1,-53.5,242.5)"><path d="m56.693 240.94h85.039v-85.039h-85.039z" fill="none" stroke="#000" stroke-linecap="round" stroke-linejoin="round" stroke-miterlimit="10" stroke-width="2"/></g><g transform="matrix(1,0,0,-1,-53.5,242.5)"><path d="m67.323 240.94v-85.039" fill="none" stroke="#000" stroke-linecap="round" stroke-linejoin="round" stroke-miterlimit="10"/></g><g transform="matrix(1,0,0,-1,-53.5,242.5)"><path d="m77.953 240.94v-85.039" fill="none" stroke="#000" stroke-linecap="round" stroke-linejoin="round" stroke-miterlimit="10"/></g><g transform="matrix(1,0,0,-1,-53.5,242.5)"><path d="m88.583 240.94v-85.039" fill="none" stroke="#000" stroke-linecap="round" stroke-linejoin="round" stroke-miterlimit="10"/></g><g transform="matrix(1,0,0,-1,-53.5,242.5)"><path d="m99.213 240.94v-85.039" fill="none" stroke="#000" stroke-linecap="round" stroke-linejoin="round" stroke-miterlimit="10"/></g><g transform="matrix(1,0,0,-1,-53.5,242.5)"><path d="m109.84 240.94v-85.039" fill="none" stroke="#000" stroke-linecap="round" stroke-linejoin="round" stroke-miterlimit="10"/></g><g transform="matrix(1,0,0,-1,-53.5,242.5)"><path d="m120.47 240.94v-85.039" fill="none" stroke="#000" stroke-linecap="round" stroke-linejoin="round" stroke-miterlimit="10"/></g><g transform="matrix(1,0,0,-1,-53.5,242.5)"><path d="m131.1 240.94v-85.039" fill="none" stroke="#000" stroke-linecap="round" stroke-linejoin="round" stroke-miterlimit="10"/></g><g transform="matrix(1,0,0,-1,-53.5,242.5)"><path d="m141.73 230.31h-85.039" fill="none" stroke="#000" stroke-linecap="round" stroke-linejoin="round" stroke-miterlimit="10"/></g><g transform="matrix(1,0,0,-1,-53.5,242.5)"><path d="m141.73 219.68h-85.039" fill="none" stroke="#000" stroke-linecap="round" stroke-linejoin="round" stroke-miterlimit="10"/></g><g transform="matrix(1,0,0,-1,-53.5,242.5)"><path d="m141.73 209.06h-85.039" fill="none" stroke="#000" stroke-linecap="round" stroke-linejoin="round" stroke-miterlimit="10"/></g><g transform="matrix(1,0,0,-1,-53.5,242.5)"><path d="m141.73 198.43h-85.039" fill="none" stroke="#000" stroke-linecap="round" stroke-linejoin="round" stroke-miterlimit="10"/></g><g transform="matrix(1,0,0,-1,-53.5,242.5)"><path d="m141.73 187.8h-85.039" fill="none" stroke="#000" stroke-linecap="round" stroke-linejoin="round" stroke-miterlimit="10"/></g><g transform="matrix(1,0,0,-1,-53.5,242.5)"><path d="m141.73 177.17h-85.039" fill="none" stroke="#000" stroke-linecap="round" stroke-linejoin="round" stroke-miterlimit="10"/></g><g transform="matrix(1,0,0,-1,-53.5,242.5)"><path d="m141.73 166.54h-85.039" fill="none" stroke="#000" stroke-linecap="round" stroke-linejoin="round" stroke-miterlimit="10"/></g><path d="m11.347 4.3562c1.4645 1.4645 1.4645 3.8388 0 5.3033-1.4645 1.4645-3.8388 1.4645-5.3033 0-1.4645-1.4645-1.4645-3.8388 0-5.3033 1.4645-1.4645 3.8388-1.4645 5.3033 0" fill="#0073cf"/><g transform="matrix(1,0,0,-1,-53.5,242.5)"><path d="m64.847 238.14c1.4645-1.4645 1.4645-3.8388 0-5.3033s-3.8388-1.4645-5.3033 0-1.4645 3.8388 0 5.3033 3.8388 1.4645 5.3033 0" fill="none" stroke="#000" stroke-linecap="round" stroke-linejoin="round" stroke-miterlimit="10"/></g><path d="m21.977 46.926c1.4645 1.4645 1.4645 3.8388 0 5.3033-1.4645 1.4645-3.8388 1.4645-5.3033 0-1.4645-1.4645-1.4645-3.8388 0-5.3033 1.4645-1.4645 3.8388-1.4645 5.3033 0" fill="#0073cf"/><g transform="matrix(1,0,0,-1,-53.5,242.5)"><path d="m75.477 195.57c1.4645-1.4645 1.4645-3.8389 0-5.3033-1.4645-1.4645-3.8388-1.4645-5.3033 0-1.4645 1.4644-1.4645 3.8388 0 5.3033 1.4645 1.4644 3.8388 1.4644 5.3033 0" fill="none" stroke="#000" stroke-linecap="round" stroke-linejoin="round" stroke-miterlimit="10"/></g><path d="m32.607 78.815c1.4645 1.4645 1.4645 3.8388 0 5.3033s-3.8388 1.4645-5.3033 0-1.4645-3.8388 0-5.3033 3.8388-1.4645 5.3033 0" fill="#0073cf"/><g transform="matrix(1,0,0,-1,-53.5,242.5)"><path d="m86.107 163.68c1.4645-1.4645 1.4645-3.8388 0-5.3033s-3.8388-1.4645-5.3033 0-1.4645 3.8388 0 5.3033 3.8388 1.4645 5.3033 0" fill="none" stroke="#000" stroke-linecap="round" stroke-linejoin="round" stroke-miterlimit="10"/></g><path d="m43.237 57.556c1.4645 1.4645 1.4645 3.8388 0 5.3033-1.4645 1.4645-3.8388 1.4645-5.3033 0-1.4645-1.4645-1.4645-3.8388 0-5.3033 1.4645-1.4645 3.8388-1.4645 5.3033 0" fill="#0073cf"/><g transform="matrix(1,0,0,-1,-53.5,242.5)"><path d="m96.737 184.94c1.4645-1.4645 1.4645-3.8389 0-5.3033-1.4645-1.4645-3.8388-1.4645-5.3033 0-1.4645 1.4644-1.4645 3.8388 0 5.3033 1.4645 1.4644 3.8388 1.4644 5.3033 0" fill="none" stroke="#000" stroke-linecap="round" stroke-linejoin="round" stroke-miterlimit="10"/></g><path d="m53.867 25.666c1.4645 1.4645 1.4645 3.8388 0 5.3033-1.4645 1.4645-3.8388 1.4645-5.3033 0-1.4645-1.4645-1.4645-3.8388 0-5.3033 1.4645-1.4645 3.8388-1.4645 5.3033 0" fill="#0073cf"/><g transform="matrix(1,0,0,-1,-53.5,242.5)"><path d="m107.37 216.83c1.4645-1.4644 1.4645-3.8388 0-5.3033-1.4645-1.4644-3.8388-1.4644-5.3033 0-1.4645 1.4645-1.4645 3.8389 0 5.3033 1.4645 1.4645 3.8388 1.4645 5.3033 0" fill="none" stroke="#000" stroke-linecap="round" stroke-linejoin="round" stroke-miterlimit="10"/></g><path d="m64.497 68.185c1.4645 1.4645 1.4645 3.8388 0 5.3033s-3.8388 1.4645-5.3033 0-1.4645-3.8388 0-5.3033 3.8388-1.4645 5.3033 0" fill="#0073cf"/><g transform="matrix(1,0,0,-1,-53.5,242.5)"><path d="m118 174.31c1.4645-1.4644 1.4645-3.8388 0-5.3033-1.4644-1.4644-3.8388-1.4644-5.3033 0-1.4644 1.4645-1.4644 3.8389 0 5.3033 1.4645 1.4645 3.8389 1.4645 5.3033 0" fill="none" stroke="#000" stroke-linecap="round" stroke-linejoin="round" stroke-miterlimit="10"/></g><path d="m75.127 15.036c1.4645 1.4645 1.4645 3.8388 0 5.3033-1.4645 1.4645-3.8388 1.4645-5.3033 0-1.4645-1.4645-1.4645-3.8388 0-5.3033 1.4645-1.4645 3.8388-1.4645 5.3033 0" fill="#0073cf"/><g transform="matrix(1,0,0,-1,-53.5,242.5)"><path d="m128.63 227.46c1.4645-1.4644 1.4645-3.8388 0-5.3033-1.4644-1.4644-3.8388-1.4644-5.3033 0-1.4644 1.4645-1.4644 3.8389 0 5.3033 1.4645 1.4645 3.8389 1.4645 5.3033 0" fill="none" stroke="#000" stroke-linecap="round" stroke-linejoin="round" stroke-miterlimit="10"/></g><path d="m85.647 36.296c1.4645 1.4645 1.4645 3.8388 0 5.3033-1.4645 1.4645-3.8388 1.4645-5.3033 0-1.4645-1.4645-1.4645-3.8388 0-5.3033 1.4645-1.4645 3.8388-1.4645 5.3033 0" fill="#0073cf"/><g transform="matrix(1,0,0,-1,-53.5,242.5)"><path d="m139.15 206.2c1.4645-1.4645 1.4645-3.8388 0-5.3033s-3.8388-1.4645-5.3033 0-1.4645 3.8388 0 5.3033 3.8388 1.4645 5.3033 0" fill="none" stroke="#000" stroke-linecap="round" stroke-linejoin="round" stroke-miterlimit="10"/></g><g transform="matrix(1,0,0,-1,-53.5,242.5)"><path d="m155.91 155.91v85.039h85.039v-85.039z" fill="none" stroke="#000" stroke-linecap="round" stroke-linejoin="round" stroke-miterlimit="10" stroke-width="2"/></g><g transform="matrix(1,0,0,-1,-53.5,242.5)"><path d="m155.91 166.54h85.039" fill="none" stroke="#000" stroke-linecap="round" stroke-linejoin="round" stroke-miterlimit="10"/></g><g transform="matrix(1,0,0,-1,-53.5,242.5)"><path d="m155.91 177.17h85.039" fill="none" stroke="#000" stroke-linecap="round" stroke-linejoin="round" stroke-miterlimit="10"/></g><g transform="matrix(1,0,0,-1,-53.5,242.5)"><path d="m155.91 187.8h85.039" fill="none" stroke="#000" stroke-linecap="round" stroke-linejoin="round" stroke-miterlimit="10"/></g><g transform="matrix(1,0,0,-1,-53.5,242.5)"><path d="m155.91 198.43h85.039" fill="none" stroke="#000" stroke-linecap="round" stroke-linejoin="round" stroke-miterlimit="10"/></g><g transform="matrix(1,0,0,-1,-53.5,242.5)"><path d="m155.91 209.06h85.039" fill="none" stroke="#000" stroke-linecap="round" stroke-linejoin="round" stroke-miterlimit="10"/></g><g transform="matrix(1,0,0,-1,-53.5,242.5)"><path d="m155.91 219.68h85.039" fill="none" stroke="#000" stroke-linecap="round" stroke-linejoin="round" stroke-miterlimit="10"/></g><g transform="matrix(1,0,0,-1,-53.5,242.5)"><path d="m155.91 230.31h85.039" fill="none" stroke="#000" stroke-linecap="round" stroke-linejoin="round" stroke-miterlimit="10"/></g><g transform="matrix(1,0,0,-1,-53.5,242.5)"><path d="m166.54 240.94v-85.039" fill="none" stroke="#000" stroke-linecap="round" stroke-linejoin="round" stroke-miterlimit="10"/></g><g transform="matrix(1,0,0,-1,-53.5,242.5)"><path d="m177.17 240.94v-85.039" fill="none" stroke="#000" stroke-linecap="round" stroke-linejoin="round" stroke-miterlimit="10"/></g><g transform="matrix(1,0,0,-1,-53.5,242.5)"><path d="m187.8 240.94v-85.039" fill="none" stroke="#000" stroke-linecap="round" stroke-linejoin="round" stroke-miterlimit="10"/></g><g transform="matrix(1,0,0,-1,-53.5,242.5)"><path d="m198.43 240.94v-85.039" fill="none" stroke="#000" stroke-linecap="round" stroke-linejoin="round" stroke-miterlimit="10"/></g><g transform="matrix(1,0,0,-1,-53.5,242.5)"><path d="m209.06 240.94v-85.039" fill="none" stroke="#000" stroke-linecap="round" stroke-linejoin="round" stroke-miterlimit="10"/></g><g transform="matrix(1,0,0,-1,-53.5,242.5)"><path d="m219.68 240.94v-85.039" fill="none" stroke="#000" stroke-linecap="round" stroke-linejoin="round" stroke-miterlimit="10"/></g><g transform="matrix(1,0,0,-1,-53.5,242.5)"><path d="m230.31 240.94v-85.039" fill="none" stroke="#000" stroke-linecap="round" stroke-linejoin="round" stroke-miterlimit="10"/></g><path d="m105.21 78.44c1.4644-1.4645 3.8388-1.4645 5.3033 0 1.4644 1.4645 1.4644 3.8388 0 5.3033-1.4645 1.4645-3.8389 1.4645-5.3033 0-1.4645-1.4645-1.4645-3.8388 0-5.3033" fill="#0073cf"/><g transform="matrix(1,0,0,-1,-53.5,242.5)"><path d="m158.71 164.06c1.4644 1.4645 3.8388 1.4645 5.3033 0 1.4644-1.4645 1.4644-3.8388 0-5.3033-1.4645-1.4645-3.8389-1.4645-5.3033 0-1.4645 1.4645-1.4645 3.8388 0 5.3033" fill="none" stroke="#000" stroke-linecap="round" stroke-linejoin="round" stroke-miterlimit="10"/></g><path d="m147.78 67.81c1.4645-1.4645 3.8388-1.4645 5.3033 0 1.4645 1.4645 1.4645 3.8388 0 5.3033-1.4645 1.4645-3.8388 1.4645-5.3033 0-1.4645-1.4645-1.4645-3.8388 0-5.3033" fill="#0073cf"/><g transform="matrix(1,0,0,-1,-53.5,242.5)"><path d="m201.28 174.69c1.4645 1.4645 3.8388 1.4645 5.3033 0 1.4645-1.4644 1.4645-3.8388 0-5.3033-1.4645-1.4644-3.8388-1.4644-5.3033 0-1.4645 1.4645-1.4645 3.8389 0 5.3033" fill="none" stroke="#000" stroke-linecap="round" stroke-linejoin="round" stroke-miterlimit="10"/></g><path d="m179.67 57.181c1.4644-1.4645 3.8388-1.4645 5.3033 0 1.4644 1.4645 1.4644 3.8388 0 5.3033-1.4645 1.4645-3.8389 1.4645-5.3033 0-1.4645-1.4645-1.4645-3.8388 0-5.3033" fill="#0073cf"/><g transform="matrix(1,0,0,-1,-53.5,242.5)"><path d="m233.17 185.32c1.4644 1.4645 3.8388 1.4645 5.3033 0 1.4644-1.4644 1.4644-3.8388 0-5.3032-1.4645-1.4645-3.8389-1.4645-5.3033 0-1.4645 1.4644-1.4645 3.8388 0 5.3032" fill="none" stroke="#000" stroke-linecap="round" stroke-linejoin="round" stroke-miterlimit="10"/></g><path d="m158.41 46.551c1.4645-1.4645 3.8389-1.4645 5.3033 0 1.4645 1.4645 1.4645 3.8388 0 5.3033-1.4644 1.4645-3.8388 1.4645-5.3033 0s-1.4645-3.8388 0-5.3033" fill="#0073cf"/><g transform="matrix(1,0,0,-1,-53.5,242.5)"><path d="m211.91 195.95c1.4645 1.4644 3.8389 1.4644 5.3033 0 1.4645-1.4645 1.4645-3.8389 0-5.3033-1.4644-1.4645-3.8388-1.4645-5.3033 0-1.4645 1.4644-1.4645 3.8388 0 5.3033" fill="none" stroke="#000" stroke-linecap="round" stroke-linejoin="round" stroke-miterlimit="10"/></g><path d="m126.52 35.921c1.4645-1.4645 3.8389-1.4645 5.3033 0 1.4645 1.4645 1.4645 3.8388 0 5.3033-1.4644 1.4645-3.8388 1.4645-5.3033 0-1.4644-1.4645-1.4644-3.8388 0-5.3033" fill="#0073cf"/><g transform="matrix(1,0,0,-1,-53.5,242.5)"><path d="m180.02 206.58c1.4645 1.4645 3.8389 1.4645 5.3033 0 1.4645-1.4645 1.4645-3.8388 0-5.3033-1.4644-1.4645-3.8388-1.4645-5.3033 0-1.4644 1.4645-1.4644 3.8388 0 5.3033" fill="none" stroke="#000" stroke-linecap="round" stroke-linejoin="round" stroke-miterlimit="10"/></g><path d="m169.04 25.291c1.4645-1.4645 3.8389-1.4645 5.3033 0 1.4645 1.4645 1.4645 3.8388 0 5.3033-1.4644 1.4645-3.8388 1.4645-5.3033 0-1.4644-1.4645-1.4644-3.8388 0-5.3033" fill="#0073cf"/><g transform="matrix(1,0,0,-1,-53.5,242.5)"><path d="m222.54 217.21c1.4645 1.4645 3.8389 1.4645 5.3033 0 1.4645-1.4644 1.4645-3.8388 0-5.3033-1.4644-1.4644-3.8388-1.4644-5.3033 0-1.4644 1.4645-1.4644 3.8389 0 5.3033" fill="none" stroke="#000" stroke-linecap="round" stroke-linejoin="round" stroke-miterlimit="10"/></g><path d="m115.89 14.661c1.4645-1.4645 3.8389-1.4645 5.3033 0 1.4645 1.4645 1.4645 3.8388 0 5.3033-1.4644 1.4645-3.8388 1.4645-5.3033 0-1.4644-1.4645-1.4644-3.8388 0-5.3033" fill="#0073cf"/><g transform="matrix(1,0,0,-1,-53.5,242.5)"><path d="m169.39 227.84c1.4645 1.4645 3.8389 1.4645 5.3033 0 1.4645-1.4644 1.4645-3.8388 0-5.3033-1.4644-1.4644-3.8388-1.4644-5.3033 0-1.4644 1.4645-1.4644 3.8389 0 5.3033" fill="none" stroke="#000" stroke-linecap="round" stroke-linejoin="round" stroke-miterlimit="10"/></g><path d="m137.15 4.1402c1.4644-1.4645 3.8388-1.4645 5.3033 0 1.4644 1.4645 1.4644 3.8388 0 5.3033-1.4645 1.4645-3.8389 1.4645-5.3033 0-1.4645-1.4645-1.4645-3.8388 0-5.3033" fill="#0073cf"/><g transform="matrix(1,0,0,-1,-53.5,242.5)"><path d="m190.65 238.36c1.4644 1.4645 3.8388 1.4645 5.3033 0 1.4644-1.4645 1.4644-3.8388 0-5.3033-1.4645-1.4645-3.8389-1.4645-5.3033 0-1.4645 1.4645-1.4645 3.8388 0 5.3033" fill="none" stroke="#000" stroke-linecap="round" stroke-linejoin="round" stroke-miterlimit="10"/></g><g transform="matrix(1,0,0,-1,-53.5,242.5)"><path d="m340.16 155.91h-85.039v85.039h85.039z" fill="none" stroke="#000" stroke-linecap="round" stroke-linejoin="round" stroke-miterlimit="10" stroke-width="2"/></g><g transform="matrix(1,0,0,-1,-53.5,242.5)"><path d="m329.53 155.91v85.039" fill="none" stroke="#000" stroke-linecap="round" stroke-linejoin="round" stroke-miterlimit="10"/></g><g transform="matrix(1,0,0,-1,-53.5,242.5)"><path d="m318.9 155.91v85.039" fill="none" stroke="#000" stroke-linecap="round" stroke-linejoin="round" stroke-miterlimit="10"/></g><g transform="matrix(1,0,0,-1,-53.5,242.5)"><path d="m308.27 155.91v85.039" fill="none" stroke="#000" stroke-linecap="round" stroke-linejoin="round" stroke-miterlimit="10"/></g><g transform="matrix(1,0,0,-1,-53.5,242.5)"><path d="m297.64 155.91v85.039" fill="none" stroke="#000" stroke-linecap="round" stroke-linejoin="round" stroke-miterlimit="10"/></g><g transform="matrix(1,0,0,-1,-53.5,242.5)"><path d="m287.01 155.91v85.039" fill="none" stroke="#000" stroke-linecap="round" stroke-linejoin="round" stroke-miterlimit="10"/></g><g transform="matrix(1,0,0,-1,-53.5,242.5)"><path d="m276.38 155.91v85.039" fill="none" stroke="#000" stroke-linecap="round" stroke-linejoin="round" stroke-miterlimit="10"/></g><g transform="matrix(1,0,0,-1,-53.5,242.5)"><path d="m265.75 155.91v85.039" fill="none" stroke="#000" stroke-linecap="round" stroke-linejoin="round" stroke-miterlimit="10"/></g><g transform="matrix(1,0,0,-1,-53.5,242.5)"><path d="m255.12 166.54h85.039" fill="none" stroke="#000" stroke-linecap="round" stroke-linejoin="round" stroke-miterlimit="10"/></g><g transform="matrix(1,0,0,-1,-53.5,242.5)"><path d="m255.12 177.17h85.039" fill="none" stroke="#000" stroke-linecap="round" stroke-linejoin="round" stroke-miterlimit="10"/></g><g transform="matrix(1,0,0,-1,-53.5,242.5)"><path d="m255.12 187.8h85.039" fill="none" stroke="#000" stroke-linecap="round" stroke-linejoin="round" stroke-miterlimit="10"/></g><g transform="matrix(1,0,0,-1,-53.5,242.5)"><path d="m255.12 198.43h85.039" fill="none" stroke="#000" stroke-linecap="round" stroke-linejoin="round" stroke-miterlimit="10"/></g><g transform="matrix(1,0,0,-1,-53.5,242.5)"><path d="m255.12 209.06h85.039" fill="none" stroke="#000" stroke-linecap="round" stroke-linejoin="round" stroke-miterlimit="10"/></g><g transform="matrix(1,0,0,-1,-53.5,242.5)"><path d="m255.12 219.68h85.039" fill="none" stroke="#000" stroke-linecap="round" stroke-linejoin="round" stroke-miterlimit="10"/></g><g transform="matrix(1,0,0,-1,-53.5,242.5)"><path d="m255.12 230.31h85.039" fill="none" stroke="#000" stroke-linecap="round" stroke-linejoin="round" stroke-miterlimit="10"/></g><path d="m278.5 83.793c-1.4644-1.4645-1.4644-3.8388 0-5.3033 1.4645-1.4645 3.8389-1.4645 5.3033 0 1.4645 1.4645 1.4645 3.8388 0 5.3033-1.4644 1.4645-3.8388 1.4645-5.3033 0" fill="#0073cf"/><g transform="matrix(1,0,0,-1,-53.5,242.5)"><path d="m332 158.71c-1.4644 1.4644-1.4644 3.8388 0 5.3033 1.4645 1.4644 3.8389 1.4644 5.3033 0 1.4645-1.4645 1.4645-3.8389 0-5.3033-1.4644-1.4645-3.8388-1.4645-5.3033 0" fill="none" stroke="#000" stroke-linecap="round" stroke-linejoin="round" stroke-miterlimit="10"/></g><path d="m267.87 41.224c-1.4644-1.4645-1.4644-3.8388 0-5.3033 1.4645-1.4645 3.8389-1.4645 5.3033 0 1.4645 1.4645 1.4645 3.8388 0 5.3033-1.4644 1.4645-3.8388 1.4645-5.3033 0" fill="#0073cf"/><g transform="matrix(1,0,0,-1,-53.5,242.5)"><path d="m321.37 201.28c-1.4644 1.4645-1.4644 3.8388 0 5.3033 1.4645 1.4645 3.8389 1.4645 5.3033 0 1.4645-1.4645 1.4645-3.8388 0-5.3033-1.4644-1.4645-3.8388-1.4645-5.3033 0" fill="none" stroke="#000" stroke-linecap="round" stroke-linejoin="round" stroke-miterlimit="10"/></g><path d="m257.24 9.3342c-1.4645-1.4645-1.4645-3.8388 0-5.3033 1.4645-1.4645 3.8388-1.4645 5.3033 0 1.4645 1.4645 1.4645 3.8388 0 5.3033-1.4645 1.4645-3.8388 1.4645-5.3033 0" fill="#0073cf"/><g transform="matrix(1,0,0,-1,-53.5,242.5)"><path d="m310.74 233.17c-1.4645 1.4644-1.4645 3.8388 0 5.3033 1.4645 1.4644 3.8388 1.4644 5.3033 0 1.4645-1.4645 1.4645-3.8389 0-5.3033-1.4645-1.4645-3.8388-1.4645-5.3033 0" fill="none" stroke="#000" stroke-linecap="round" stroke-linejoin="round" stroke-miterlimit="10"/></g><path d="m246.61 30.594c-1.4645-1.4645-1.4645-3.8388 0-5.3033s3.8388-1.4645 5.3033 0 1.4645 3.8388 0 5.3033-3.8388 1.4645-5.3033 0" fill="#0073cf"/><g transform="matrix(1,0,0,-1,-53.5,242.5)"><path d="m300.11 211.91c-1.4645 1.4645-1.4645 3.8389 0 5.3033 1.4645 1.4645 3.8388 1.4645 5.3033 0 1.4645-1.4644 1.4645-3.8388 0-5.3033s-3.8388-1.4645-5.3033 0" fill="none" stroke="#000" stroke-linecap="round" stroke-linejoin="round" stroke-miterlimit="10"/></g><path d="m235.98 62.484c-1.4645-1.4645-1.4645-3.8388 0-5.3033 1.4644-1.4645 3.8388-1.4645 5.3033 0 1.4644 1.4645 1.4644 3.8388 0 5.3033-1.4645 1.4645-3.8389 1.4645-5.3033 0" fill="#0073cf"/><g transform="matrix(1,0,0,-1,-53.5,242.5)"><path d="m289.48 180.02c-1.4645 1.4645-1.4645 3.8389 0 5.3033 1.4644 1.4645 3.8388 1.4645 5.3033 0 1.4644-1.4644 1.4644-3.8388 0-5.3033-1.4645-1.4644-3.8389-1.4644-5.3033 0" fill="none" stroke="#000" stroke-linecap="round" stroke-linejoin="round" stroke-miterlimit="10"/></g><path d="m225.35 19.964c-1.4644-1.4645-1.4644-3.8388 0-5.3033 1.4645-1.4645 3.8389-1.4645 5.3033 0 1.4645 1.4645 1.4645 3.8388 0 5.3033-1.4644 1.4645-3.8388 1.4645-5.3033 0" fill="#0073cf"/><g transform="matrix(1,0,0,-1,-53.5,242.5)"><path d="m278.85 222.54c-1.4644 1.4645-1.4644 3.8389 0 5.3033 1.4645 1.4645 3.8389 1.4645 5.3033 0 1.4645-1.4644 1.4645-3.8388 0-5.3033-1.4644-1.4644-3.8388-1.4644-5.3033 0" fill="none" stroke="#000" stroke-linecap="round" stroke-linejoin="round" stroke-miterlimit="10"/></g><path d="m214.72 73.114c-1.4645-1.4645-1.4645-3.8388 0-5.3033s3.8389-1.4645 5.3033 0c1.4645 1.4645 1.4645 3.8388 0 5.3033-1.4644 1.4645-3.8388 1.4645-5.3033 0" fill="#0073cf"/><g transform="matrix(1,0,0,-1,-53.5,242.5)"><path d="m268.22 169.39c-1.4645 1.4645-1.4645 3.8389 0 5.3033 1.4645 1.4645 3.8389 1.4645 5.3033 0 1.4645-1.4644 1.4645-3.8388 0-5.3033-1.4644-1.4644-3.8388-1.4644-5.3033 0" fill="none" stroke="#000" stroke-linecap="round" stroke-linejoin="round" stroke-miterlimit="10"/></g><path d="m204.2 51.854c-1.4644-1.4645-1.4644-3.8388 0-5.3033 1.4645-1.4645 3.8389-1.4645 5.3033 0 1.4645 1.4645 1.4645 3.8388 0 5.3033-1.4644 1.4645-3.8388 1.4645-5.3033 0" fill="#0073cf"/><g transform="matrix(1,0,0,-1,-53.5,242.5)"><path d="m257.7 190.65c-1.4644 1.4644-1.4644 3.8388 0 5.3033 1.4645 1.4644 3.8389 1.4644 5.3033 0 1.4645-1.4645 1.4645-3.8389 0-5.3033-1.4644-1.4645-3.8388-1.4645-5.3033 0" fill="none" stroke="#000" stroke-linecap="round" stroke-linejoin="round" stroke-miterlimit="10"/></g><g transform="matrix(1,0,0,-1,-53.5,242.5)"><path d="m439.37 240.94v-85.039h-85.039v85.039z" fill="none" stroke="#000" stroke-linecap="round" stroke-linejoin="round" stroke-miterlimit="10" stroke-width="2"/></g><g transform="matrix(1,0,0,-1,-53.5,242.5)"><path d="m439.37 230.31h-85.039" fill="none" stroke="#000" stroke-linecap="round" stroke-linejoin="round" stroke-miterlimit="10"/></g><g transform="matrix(1,0,0,-1,-53.5,242.5)"><path d="m439.37 219.68h-85.039" fill="none" stroke="#000" stroke-linecap="round" stroke-linejoin="round" stroke-miterlimit="10"/></g><g transform="matrix(1,0,0,-1,-53.5,242.5)"><path d="m439.37 209.06h-85.039" fill="none" stroke="#000" stroke-linecap="round" stroke-linejoin="round" stroke-miterlimit="10"/></g><g transform="matrix(1,0,0,-1,-53.5,242.5)"><path d="m439.37 198.43h-85.039" fill="none" stroke="#000" stroke-linecap="round" stroke-linejoin="round" stroke-miterlimit="10"/></g><g transform="matrix(1,0,0,-1,-53.5,242.5)"><path d="m439.37 187.8h-85.039" fill="none" stroke="#000" stroke-linecap="round" stroke-linejoin="round" stroke-miterlimit="10"/></g><g transform="matrix(1,0,0,-1,-53.5,242.5)"><path d="m439.37 177.17h-85.039" fill="none" stroke="#000" stroke-linecap="round" stroke-linejoin="round" stroke-miterlimit="10"/></g><g transform="matrix(1,0,0,-1,-53.5,242.5)"><path d="m439.37 166.54h-85.039" fill="none" stroke="#000" stroke-linecap="round" stroke-linejoin="round" stroke-miterlimit="10"/></g><g transform="matrix(1,0,0,-1,-53.5,242.5)"><path d="m428.74 155.91v85.039" fill="none" stroke="#000" stroke-linecap="round" stroke-linejoin="round" stroke-miterlimit="10"/></g><g transform="matrix(1,0,0,-1,-53.5,242.5)"><path d="m418.11 155.91v85.039" fill="none" stroke="#000" stroke-linecap="round" stroke-linejoin="round" stroke-miterlimit="10"/></g><g transform="matrix(1,0,0,-1,-53.5,242.5)"><path d="m407.48 155.91v85.039" fill="none" stroke="#000" stroke-linecap="round" stroke-linejoin="round" stroke-miterlimit="10"/></g><g transform="matrix(1,0,0,-1,-53.5,242.5)"><path d="m396.85 155.91v85.039" fill="none" stroke="#000" stroke-linecap="round" stroke-linejoin="round" stroke-miterlimit="10"/></g><g transform="matrix(1,0,0,-1,-53.5,242.5)"><path d="m386.22 155.91v85.039" fill="none" stroke="#000" stroke-linecap="round" stroke-linejoin="round" stroke-miterlimit="10"/></g><g transform="matrix(1,0,0,-1,-53.5,242.5)"><path d="m375.59 155.91v85.039" fill="none" stroke="#000" stroke-linecap="round" stroke-linejoin="round" stroke-miterlimit="10"/></g><g transform="matrix(1,0,0,-1,-53.5,242.5)"><path d="m364.96 155.91v85.039" fill="none" stroke="#000" stroke-linecap="round" stroke-linejoin="round" stroke-miterlimit="10"/></g><path d="m383.07 9.7092c-1.4645 1.4645-3.8388 1.4645-5.3033 0-1.4645-1.4645-1.4645-3.8388 0-5.3033 1.4645-1.4645 3.8388-1.4645 5.3033 0 1.4645 1.4645 1.4645 3.8388 0 5.3033" fill="#0073cf"/><g transform="matrix(1,0,0,-1,-53.5,242.5)"><path d="m436.57 232.79c-1.4645-1.4645-3.8388-1.4645-5.3033 0-1.4645 1.4644-1.4645 3.8388 0 5.3033 1.4645 1.4644 3.8388 1.4644 5.3033 0 1.4645-1.4645 1.4645-3.8389 0-5.3033" fill="none" stroke="#000" stroke-linecap="round" stroke-linejoin="round" stroke-miterlimit="10"/></g><path d="m340.5 20.339c-1.4645 1.4645-3.8389 1.4645-5.3033 0-1.4645-1.4645-1.4645-3.8388 0-5.3033 1.4644-1.4645 3.8388-1.4645 5.3033 0 1.4644 1.4645 1.4644 3.8388 0 5.3033" fill="#0073cf"/><g transform="matrix(1,0,0,-1,-53.5,242.5)"><path d="m394 222.16c-1.4645-1.4644-3.8389-1.4644-5.3033 0-1.4645 1.4645-1.4645 3.8389 0 5.3033 1.4644 1.4645 3.8388 1.4645 5.3033 0 1.4644-1.4644 1.4644-3.8388 0-5.3033" fill="none" stroke="#000" stroke-linecap="round" stroke-linejoin="round" stroke-miterlimit="10"/></g><path d="m308.61 30.969c-1.4645 1.4645-3.8388 1.4645-5.3033 0s-1.4645-3.8388 0-5.3033 3.8388-1.4645 5.3033 0 1.4645 3.8388 0 5.3033" fill="#0073cf"/><g transform="matrix(1,0,0,-1,-53.5,242.5)"><path d="m362.11 211.53c-1.4645-1.4644-3.8388-1.4644-5.3033 0-1.4645 1.4645-1.4645 3.8389 0 5.3033 1.4645 1.4645 3.8388 1.4645 5.3033 0 1.4645-1.4644 1.4645-3.8388 0-5.3033" fill="none" stroke="#000" stroke-linecap="round" stroke-linejoin="round" stroke-miterlimit="10"/></g><path d="m329.87 41.599c-1.4644 1.4645-3.8388 1.4645-5.3033 0-1.4644-1.4645-1.4644-3.8388 0-5.3033 1.4645-1.4645 3.8389-1.4645 5.3033 0 1.4645 1.4645 1.4645 3.8388 0 5.3033" fill="#0073cf"/><g transform="matrix(1,0,0,-1,-53.5,242.5)"><path d="m383.37 200.9c-1.4644-1.4645-3.8388-1.4645-5.3033 0-1.4644 1.4645-1.4644 3.8388 0 5.3033 1.4645 1.4645 3.8389 1.4645 5.3033 0 1.4645-1.4645 1.4645-3.8388 0-5.3033" fill="none" stroke="#000" stroke-linecap="round" stroke-linejoin="round" stroke-miterlimit="10"/></g><path d="m361.76 52.229c-1.4644 1.4645-3.8388 1.4645-5.3033 0s-1.4645-3.8388 0-5.3033 3.8389-1.4645 5.3033 0c1.4645 1.4645 1.4645 3.8388 0 5.3033" fill="#0073cf"/><g transform="matrix(1,0,0,-1,-53.5,242.5)"><path d="m415.26 190.27c-1.4644-1.4645-3.8388-1.4645-5.3033 0-1.4645 1.4644-1.4645 3.8388 0 5.3033s3.8389 1.4645 5.3033 0c1.4645-1.4645 1.4645-3.8389 0-5.3033" fill="none" stroke="#000" stroke-linecap="round" stroke-linejoin="round" stroke-miterlimit="10"/></g><path d="m319.24 62.859c-1.4644 1.4645-3.8388 1.4645-5.3033 0-1.4644-1.4645-1.4644-3.8388 0-5.3033 1.4645-1.4645 3.8389-1.4645 5.3033 0 1.4645 1.4645 1.4645 3.8388 0 5.3033" fill="#0073cf"/><g transform="matrix(1,0,0,-1,-53.5,242.5)"><path d="m372.74 179.64c-1.4644-1.4645-3.8388-1.4645-5.3033 0-1.4644 1.4644-1.4644 3.8388 0 5.3032 1.4645 1.4645 3.8389 1.4645 5.3033 0 1.4645-1.4644 1.4645-3.8388 0-5.3032" fill="none" stroke="#000" stroke-linecap="round" stroke-linejoin="round" stroke-miterlimit="10"/></g><path d="m372.39 73.489c-1.4644 1.4645-3.8388 1.4645-5.3033 0-1.4644-1.4645-1.4644-3.8388 0-5.3033 1.4645-1.4645 3.8389-1.4645 5.3033 0 1.4645 1.4645 1.4645 3.8388 0 5.3033" fill="#0073cf"/><g transform="matrix(1,0,0,-1,-53.5,242.5)"><path d="m425.89 169.01c-1.4644-1.4644-3.8388-1.4644-5.3033 0-1.4644 1.4645-1.4644 3.8389 0 5.3033 1.4645 1.4645 3.8389 1.4645 5.3033 0 1.4645-1.4644 1.4645-3.8388 0-5.3033" fill="none" stroke="#000" stroke-linecap="round" stroke-linejoin="round" stroke-miterlimit="10"/></g><path d="m351.13 84.009c-1.4645 1.4645-3.8388 1.4645-5.3033 0s-1.4645-3.8388 0-5.3033 3.8388-1.4645 5.3033 0 1.4645 3.8388 0 5.3033" fill="#0073cf"/><g transform="matrix(1,0,0,-1,-53.5,242.5)"><path d="m404.63 158.49c-1.4645-1.4645-3.8388-1.4645-5.3033 0-1.4645 1.4644-1.4645 3.8388 0 5.3033 1.4645 1.4644 3.8388 1.4644 5.3033 0 1.4645-1.4645 1.4645-3.8389 0-5.3033" fill="none" stroke="#000" stroke-linecap="round" stroke-linejoin="round" stroke-miterlimit="10"/></g><g transform="matrix(1 0 0 -1 45.213 195.97)"><text transform="translate(-16.121 4)" fill="#000000" font-family="Helvetica" font-size="10px"><tspan x="0 5.5619998 8.8920002 11.114 16.676001 18.898001 24.459999 30.021999" y="0">original</tspan></text>
</g><g transform="matrix(1 0 0 -1 144.45 195.57)"><text transform="translate(-7.3877 4)" fill="#000000" font-family="Helvetica" font-size="10px"><tspan x="0 5.5619998 11.124" y="0">90</tspan></text>
</g><g transform="matrix(1 0 0 -1 243.76 195.17)"><text transform="translate(-10.168 4)" fill="#000000" font-family="Helvetica" font-size="10px"><tspan x="0 5.5619998 11.124 16.686001" y="0">180</tspan></text>
</g><g transform="matrix(1 0 0 -1 343.23 194.77)"><text transform="translate(-10.168 4)" fill="#000000" font-family="Helvetica" font-size="10px"><tspan x="0 5.5619998 11.124 16.686001" y="0">270</tspan></text>
</g></g></g></svg>
