<?xml version="1.0" encoding="UTF-8" standalone="no"?>
<svg
   xmlns:dc="http://purl.org/dc/elements/1.1/"
   xmlns:cc="http://creativecommons.org/ns#"
   xmlns:rdf="http://www.w3.org/1999/02/22-rdf-syntax-ns#"
   xmlns:svg="http://www.w3.org/2000/svg"
   xmlns="http://www.w3.org/2000/svg"
   viewBox="0 0 412 357.33334"
   height="357.33334"
   width="412"
   xml:space="preserve"
   id="svg2"
   version="1.1"><metadata
     id="metadata8"><rdf:RDF><cc:Work
         rdf:about=""><dc:format>image/svg+xml</dc:format><dc:type
           rdf:resource="http://purl.org/dc/dcmitype/StillImage" /></cc:Work></rdf:RDF></metadata><defs
     id="defs6"><clipPath
       id="clipPath20"
       clipPathUnits="userSpaceOnUse"><path
         id="path18"
         d="M 0,0 H 309 V 268 H 0 Z" /></clipPath></defs><g
     transform="matrix(1.3333333,0,0,-1.3333333,0,357.33333)"
     id="g10"><g
       id="g12" /><g
       id="g14"><g
         clip-path="url(#clipPath20)"
         id="g16"><path
           id="path22"
           style="fill:none;stroke:#000000;stroke-width:0.44999999;stroke-linecap:butt;stroke-linejoin:miter;stroke-miterlimit:10;stroke-dasharray:none;stroke-opacity:1"
           d="m 289.5,123 6.3,-1.8 2.7,0.9 2.7,-1.8 2.7,-0.9 h 0.9" /><path
           id="path24"
           style="fill:none;stroke:#000000;stroke-width:0.44999999;stroke-linecap:butt;stroke-linejoin:miter;stroke-miterlimit:10;stroke-dasharray:4.002;stroke-dashoffset:0;stroke-opacity:1"
           d="M 114,222 113.76,93.54 M 114,141 h 94.5 V 49.2 m -18,152.76 V 141 m 18,-18 h 81 m -14.4,-67.5 -14.4,3.6 -2.7,3.6 -4.5,2.7 -4.5,-1.8 -10.8,2.7 -6.3,4.5 -4.5,1.8 -6.3,0.9 -11.7,6.3 h -0.9" /><path
           id="path26"
           style="fill:none;stroke:#000000;stroke-width:0.44999999;stroke-linecap:butt;stroke-linejoin:miter;stroke-miterlimit:10;stroke-dasharray:none;stroke-opacity:1"
           d="m 267,24.24 -6.3,4.5 L 253.5,24 H 249 m 0,0 -9,4.5 -4.5,-9 4.5,-9 13.5,-9 11.94,8.76 L 267,24 m -153,198 -13.5,13.5 -18,-4.5 -18,-22.5 -40.5,-18 -18,-9 -4.5,-9 V 159 l 9,-18 9,-45 -9,-13.5 18,-9 h 18 L 69,87 h 22.5 l 31.5,9 h 27 l 18,-22.5 13.5,18 V 81.6 L 177,64.5 h 18 l 9,-13.5 22.5,-9 9,4.5 13.5,-4.5 13.5,9 13.5,4.5 13.5,36 9,4.5 9,31.5 -4.5,31.5 -13.5,18 -31.5,31.5 -27,58.5 -9,-36 -4.5,-36 h -9 l -22.5,9 -9,22.5 4.5,18 H 132 l -13.5,-18 -4.5,-9" /><text
           id="text30"
           style="font-variant:normal;font-weight:normal;font-size:10.80000019px;font-family:Times;-inkscape-font-specification:Times-Roman;writing-mode:lr-tb;fill:#000000;fill-opacity:1;fill-rule:nonzero;stroke:none"
           transform="matrix(1,0,0,-1,249.48,12.3)"><tspan
             id="tspan28"
             y="0"
             x="0">T</tspan></text>
<text
           id="text34"
           style="font-variant:normal;font-weight:normal;font-size:10.80000019px;font-family:Times;-inkscape-font-specification:Times-Roman;writing-mode:lr-tb;fill:#000000;fill-opacity:1;fill-rule:nonzero;stroke:none"
           transform="matrix(1,0,0,-1,54.60048,146.4004)"><tspan
             id="tspan32"
             y="0"
             x="0 10.1952">WA</tspan></text>
<text
           id="text38"
           style="font-variant:normal;font-weight:normal;font-size:10.80000019px;font-family:Times;-inkscape-font-specification:Times-Roman;writing-mode:lr-tb;fill:#000000;fill-opacity:1;fill-rule:nonzero;stroke:none"
           transform="matrix(1,0,0,-1,144.6001,175.2007)"><tspan
             id="tspan36"
             y="0"
             x="0 7.7975998">NT</tspan></text>
<text
           id="text42"
           style="font-variant:normal;font-weight:normal;font-size:10.80000019px;font-family:Times;-inkscape-font-specification:Times-Roman;writing-mode:lr-tb;fill:#000000;fill-opacity:1;fill-rule:nonzero;stroke:none"
           transform="matrix(1,0,0,-1,146.4005,113.1007)"><tspan
             id="tspan40"
             y="0"
             x="0 6.0047998">SA</tspan></text>
<text
           id="text46"
           style="font-variant:normal;font-weight:normal;font-size:10.80000019px;font-family:Times;-inkscape-font-specification:Times-Roman;writing-mode:lr-tb;fill:#000000;fill-opacity:1;fill-rule:nonzero;stroke:none"
           transform="matrix(1,0,0,-1,236.4001,95.10036)"><tspan
             id="tspan44"
             y="0"
             x="0 7.7975998 13.8024">NSW</tspan></text>
<text
           id="text50"
           style="font-variant:normal;font-weight:normal;font-size:10.80000019px;font-family:Times;-inkscape-font-specification:Times-Roman;writing-mode:lr-tb;fill:#000000;fill-opacity:1;fill-rule:nonzero;stroke:none"
           transform="matrix(1,0,0,-1,233.7001,160.8)"><tspan
             id="tspan48"
             y="0"
             x="0">Q</tspan></text>
<text
           id="text54"
           style="font-variant:normal;font-weight:normal;font-size:10.80000019px;font-family:Times;-inkscape-font-specification:Times-Roman;writing-mode:lr-tb;fill:#000000;fill-opacity:1;fill-rule:nonzero;stroke:none"
           transform="matrix(1,0,0,-1,227.8206,54.11975)"><tspan
             id="tspan52"
             y="0"
             x="0">V</tspan></text>
</g></g></g></svg>