<?xml version="1.0" encoding="UTF-8"?>
<!-- Created with Inkscape (http://www.inkscape.org/) -->
<svg width="536" height="162.67" version="1.1" viewBox="0 0 536 162.66669" xml:space="preserve" xmlns="http://www.w3.org/2000/svg" xmlns:cc="http://creativecommons.org/ns#" xmlns:dc="http://purl.org/dc/elements/1.1/" xmlns:rdf="http://www.w3.org/1999/02/22-rdf-syntax-ns#"><metadata><rdf:RDF><cc:Work rdf:about=""><dc:format>image/svg+xml</dc:format><dc:type rdf:resource="http://purl.org/dc/dcmitype/StillImage"/><dc:title/></cc:Work></rdf:RDF></metadata><g transform="matrix(1.3333 0 0 -1.3333 0 162.67)"><g><path d="m0 0h402v122h-402z" fill="#fff"/><text transform="matrix(1 0 0 -1 18.663 12)" fill="#000000" font-family="Helvetica" font-size="12px"><tspan x="0 137.16309 143.83508 281.32617 287.99817 294.67017 68.663086 75.335091 212.66309 219.33508" y="0">0601203090</tspan></text>
<path d="m21.25 87.5h144.25v-54h-144.25z" fill="#fff"/></g><g transform="matrix(1 0 0 -1 0 122)"><path d="m21.25 34.5h144.25v54h-144.25z" fill="none" stroke="#000" stroke-linecap="round" stroke-linejoin="round" stroke-miterlimit="10"/></g><text transform="matrix(1 0 0 -1 78.194 57)" fill="#000000" font-family="Helvetica" font-size="12px"><tspan x="0 6.6719999 9.3360004 16.007999 22.68" y="0">piano</tspan></text>
<path d="m237.75 87.5h72.25v-18h-72.25z" fill="#fff"/><g transform="matrix(1 0 0 -1 0 122)"><path d="m237.75 34.5h72.25v18h-72.25z" fill="none" stroke="#000" stroke-linecap="round" stroke-linejoin="round" stroke-miterlimit="10"/></g><text transform="matrix(1 0 0 -1 242.75 75)" fill="#000000" font-family="Helvetica" font-size="9px"><tspan x="0 4.5 9.5039997 17.000999 24.516001 26.514 31.518 36.521999 38.52 43.02 45.044998 50.049 55.053001 60.056999" y="0">camaindividual</tspan></text>
<path d="m21.25 105.5h37.25v-18h-37.25z" fill="#fff"/><g transform="matrix(1 0 0 -1 0 122)"><path d="m21.25 16.5h37.25v18h-37.25z" fill="none" stroke="#000" stroke-linecap="round" stroke-linejoin="round" stroke-miterlimit="10"/></g><text transform="matrix(1 0 0 -1 27.87 93)" fill="#000000" font-family="Helvetica" font-size="12px"><tspan x="0 6 8.6639996 11.328 13.992" y="0">silla</tspan></text>
<path d="m56 105.5h37.25v-18h-37.25z" fill="#fff"/><g transform="matrix(1 0 0 -1 0 122)"><path d="m56 16.5h37.25v18h-37.25z" fill="none" stroke="#000" stroke-linecap="round" stroke-linejoin="round" stroke-miterlimit="10"/></g><text transform="matrix(1 0 0 -1 64.12 93)" fill="#000000" font-family="Helvetica" font-size="12px"><tspan x="0 6 8.6639996 11.328 13.992" y="0">silla</tspan><tspan x="-54.457031" y="63">0</tspan><tspan x="-54.457031" y="45">1</tspan><tspan x="-54.457031" y="27">2</tspan><tspan x="-54.457031" y="9">3</tspan><tspan x="-54.457031" y="-9">4</tspan></text>
<path d="m165.5 69.5h108.25v-36h-108.25z" fill="#fff"/><g transform="matrix(1 0 0 -1 0 122)"><path d="m165.5 52.5h108.25v36h-108.25z" fill="none" stroke="#000" stroke-linecap="round" stroke-linejoin="round" stroke-miterlimit="10"/></g><text transform="matrix(1 0 0 -1 189.43 48)" fill="#000000" font-family="Helvetica" font-size="12px"><tspan x="0 3.9960001 10.668 13.992 17.988001 20.652 27.360001 34.032001 38.028 44.700001 51.372002 58.080002" y="0">refrigerador</tspan></text>
<path d="m165.5 105.5h72.25v-36h-72.25z" fill="#fff"/><g transform="matrix(1 0 0 -1 0 122)"><path d="m165.5 16.5h72.25v36h-72.25z" fill="none" stroke="#000" stroke-linecap="round" stroke-linejoin="round" stroke-miterlimit="10"/></g><text transform="matrix(1 0 0 -1 171.43 84)" fill="#000000" font-family="Helvetica" font-size="12px"><tspan x="0 6 12.672 22.667999 32.688 39.360001 46.032001 52.703999 55.368" y="0">camadoble</tspan></text>
<path d="m310 69.5h49.699v-36h-49.699z" fill="#fff"/><g transform="matrix(1 0 0 -1 0 122)"><path d="m310 52.5h49.699v36h-49.699z" fill="none" stroke="#000" stroke-linecap="round" stroke-linejoin="round" stroke-miterlimit="10"/></g><text transform="matrix(1 0 0 -1 316.84 55)" fill="#000000" font-family="Helvetica" font-size="12px"><tspan x="0 6.6719999 13.344 20.016001 24.011999 30.719999" y="0">guarda</tspan><tspan x="5.4960842 9.4920835 16.164083 22.836084" y="14.000004">ropa</tspan></text>
<path d="m272.75 69.5h37.25v-36h-37.25z" fill="#fff"/><g transform="matrix(1 0 0 -1 0 122)"><path d="m272.75 52.5h37.25v36h-37.25z" fill="none" stroke="#000" stroke-linecap="round" stroke-linejoin="round" stroke-miterlimit="10"/></g><text transform="matrix(1 0 0 -1 276.36 48)" fill="#000000" font-family="Helvetica" font-size="12px"><tspan x="0 9.9960003 16.667999 22.667999" y="0">mesa</tspan><tspan x="95.625 102.297 108.969" y="36">150</tspan></text>
</g></svg>
