<?xml version="1.0" encoding="UTF-8" standalone="no"?>
<svg
   xmlns:dc="http://purl.org/dc/elements/1.1/"
   xmlns:cc="http://creativecommons.org/ns#"
   xmlns:rdf="http://www.w3.org/1999/02/22-rdf-syntax-ns#"
   xmlns:svg="http://www.w3.org/2000/svg"
   xmlns="http://www.w3.org/2000/svg"
   viewBox="0 0 1280 1280"
   height="1280"
   width="1280"
   xml:space="preserve"
   version="1.1"
   id="svg2"><metadata
     id="metadata8"><rdf:RDF><cc:Work
         rdf:about=""><dc:format>image/svg+xml</dc:format><dc:type
           rdf:resource="http://purl.org/dc/dcmitype/StillImage" /></cc:Work></rdf:RDF></metadata><defs
     id="defs6"><clipPath
       id="clipPath16"
       clipPathUnits="userSpaceOnUse"><path
         id="path18"
         d="m 0,1024 1024,0 L 1024,0 0,0 0,1024 Z" /></clipPath></defs><g
     transform="matrix(1.25,0,0,-1.25,0,1280)"
     id="g10"><g
       id="g12"><g
         clip-path="url(#clipPath16)"
         id="g14"><g
           transform="translate(132.5234,968.6421)"
           id="g20"><path
             id="path22"
             style="fill:#ffffff;fill-opacity:1;fill-rule:nonzero;stroke:none"
             d="m 0,0 c -42.484,0 -76.924,-34.438 -76.924,-76.929 l 0,-759.445 c 0,-42.49 34.44,-76.919 76.924,-76.919 l 759.445,0 c 42.49,0 76.929,34.429 76.929,76.919 l 0,759.445 C 836.374,-34.438 801.935,0 759.445,0 L 0,0 Z" /></g><g
           transform="translate(490.0073,764.9961)"
           id="g24"><path
             id="path26"
             style="fill:#4a4a49;fill-opacity:1;fill-rule:nonzero;stroke:none"
             d="m 0,0 -341.772,0 0,-101.043 183.631,0 -195.053,-426.129 369.02,0 0,101.041 -214.387,0 L 0,0 Z" /></g><g
           transform="translate(543.4619,468.0146)"
           id="g28"><path
             id="path30"
             style="fill:#4a4a49;fill-opacity:1;fill-rule:nonzero;stroke:none"
             d="m 0,0 0,-230.19 100.161,0 0,238.104 c 0,0 34.265,75.558 87.865,75.558 43.933,0 49.196,-35.135 49.196,-67.646 l 0,-246.016 100.165,0 0,293.459 c 0,74.684 -63.259,125.644 -135.299,125.644 -70.283,0 -133.558,-65.023 -133.558,-65.023 0,0 -31.624,45.688 -50.954,59.74 L -66.768,133.553 C -21.084,98.406 0,57.995 0,0" /></g><g
           transform="translate(975.4307,758.4355)"
           id="g32"><path
             id="path34"
             style="fill:#000000;fill-opacity:1;fill-rule:nonzero;stroke:none"
             d="m 0,0 -357.376,-0.375 c -44.462,0.319 -74.898,39.821 -74.918,73.428 L -432.375,210.262 0,210.262 0,0 Z" /></g><g
           transform="translate(649.8535,800.1694)"
           id="g36"><path
             id="path38"
             style="fill:#ffffff;fill-opacity:1;fill-rule:nonzero;stroke:none"
             d="M 0,0 21.593,0 44.572,81.96 55.565,-2.038 79.149,1.427 56.36,122.325 l -21.583,0 -23.986,-88.073 -23.975,88.073 -21.587,0 L -57.557,1.427 -33.973,-2.038 -22.979,81.96 0,0 Z" /></g><path
           id="path40"
           style="fill:#ffffff;fill-opacity:1;fill-rule:evenodd;stroke:none"
           d="m 766.74,893.957 -23.189,0 0,-93.787 23.189,0 0,93.787 z m 2.194,29.355 c 0,7.743 -6.196,14.067 -13.789,14.067 -7.592,0 -13.788,-6.324 -13.788,-14.067 0,-7.749 6.196,-14.069 13.788,-14.069 7.593,0 13.789,6.32 13.789,14.069" /><g
           transform="translate(800.248,853.5835)"
           id="g42"><path
             id="path44"
             style="fill:#ffffff;fill-opacity:1;fill-rule:nonzero;stroke:none"
             d="m 0,0 0,-53.414 22.779,0 0,55.251 c 0,0 7.803,17.536 19.992,17.536 9.999,0 11.194,-8.157 11.194,-15.7 l 0,-57.087 22.78,0 0,68.093 c 0,17.333 -14.391,29.159 -30.775,29.159 -15.991,0 -30.381,-15.087 -30.381,-15.087 0,0 -7.201,10.599 -11.596,13.862 L -15.188,30.994 C -4.797,22.834 0,13.459 0,0" /></g><path
           id="path46"
           style="fill:#ffffff;fill-opacity:1;fill-rule:evenodd;stroke:none"
           d="m 925.33,893.957 -23.183,0 0,-93.787 23.183,0 0,93.787 z m 2.201,29.355 c 0,7.743 -6.194,14.067 -13.788,14.067 -7.602,0 -13.797,-6.324 -13.797,-14.067 0,-7.749 6.195,-14.069 13.797,-14.069 7.594,0 13.788,6.32 13.788,14.069" /><g
           transform="translate(132.5234,968.6421)"
           id="g48"><path
             id="path50"
             style="fill:#1491eb;fill-opacity:1;fill-rule:nonzero;stroke:none"
             d="m 0,0 c -42.484,0 -76.924,-34.438 -76.924,-76.929 l 0,-759.445 c 0,-42.49 34.44,-76.919 76.924,-76.919 l 759.445,0 c 42.49,0 76.929,34.429 76.929,76.919 l 0,759.445 C 836.374,-34.438 801.935,0 759.445,0 L 0,0 Z m 0,55.355 759.445,0 c 73.063,0 132.284,-59.225 132.284,-132.284 l 0,-759.445 c 0,-73.063 -59.221,-132.275 -132.284,-132.275 l -759.445,0 c -73.059,0 -132.279,59.212 -132.279,132.275 l 0,759.445 c 0,73.059 59.22,132.284 132.279,132.284" /></g></g></g></g></svg>