<?xml version="1.0"?>
<!DOCTYPE svg PUBLIC "-//W3C//DTD SVG 1.1//EN" "http://www.w3.org/Graphics/SVG/1.1/DTD/svg11.dtd">
<svg xmlns="http://www.w3.org/2000/svg" xmlns:xl="http://www.w3.org/1999/xlink" version="1.1" viewBox="54 54 388 189" width="388pt" height="189pt"><metadata xmlns:dc="http://purl.org/dc/elements/1.1/"><dc:date>2016-12-25 16:15Z</dc:date><!-- Produced by OmniGraffle Professional 5.4.4 --></metadata><defs></defs><g stroke="none" stroke-opacity="1" stroke-dasharray="none" fill="none" fill-opacity="1"><title>Canvas 2</title><g><title>Layer 1</title><rect x="56.69291" y="56.69291" width="85.039365" height="85.039367" stroke="black" stroke-linecap="round" stroke-linejoin="round" stroke-width="2"/><line x1="67.32283" y1="56.69291" x2="67.32283" y2="141.73228" stroke="black" stroke-linecap="round" stroke-linejoin="round" stroke-width="1"/><line x1="77.95275" y1="56.69291" x2="77.95275" y2="141.73228" stroke="black" stroke-linecap="round" stroke-linejoin="round" stroke-width="1"/><line x1="88.58267" y1="56.69291" x2="88.58267" y2="141.73228" stroke="black" stroke-linecap="round" stroke-linejoin="round" stroke-width="1"/><line x1="99.212594" y1="56.69291" x2="99.212594" y2="141.73228" stroke="black" stroke-linecap="round" stroke-linejoin="round" stroke-width="1"/><line x1="109.84251" y1="56.69291" x2="109.84251" y2="141.73228" stroke="black" stroke-linecap="round" stroke-linejoin="round" stroke-width="1"/><line x1="120.47243" y1="56.69291" x2="120.47243" y2="141.73228" stroke="black" stroke-linecap="round" stroke-linejoin="round" stroke-width="1"/><line x1="131.10235" y1="56.69291" x2="131.10235" y2="141.73228" stroke="black" stroke-linecap="round" stroke-linejoin="round" stroke-width="1"/><line x1="141.73228" y1="67.32283" x2="56.69291" y2="67.32283" stroke="black" stroke-linecap="round" stroke-linejoin="round" stroke-width="1"/><line x1="141.73228" y1="77.95275" x2="56.69291" y2="77.95275" stroke="black" stroke-linecap="round" stroke-linejoin="round" stroke-width="1"/><line x1="141.73228" y1="88.58267" x2="56.69291" y2="88.58267" stroke="black" stroke-linecap="round" stroke-linejoin="round" stroke-width="1"/><line x1="141.73228" y1="99.212595" x2="56.69291" y2="99.212595" stroke="black" stroke-linecap="round" stroke-linejoin="round" stroke-width="1"/><line x1="141.73228" y1="109.84251" x2="56.69291" y2="109.84251" stroke="black" stroke-linecap="round" stroke-linejoin="round" stroke-width="1"/><line x1="141.73228" y1="120.472434" x2="56.69291" y2="120.472434" stroke="black" stroke-linecap="round" stroke-linejoin="round" stroke-width="1"/><line x1="141.73228" y1="131.10235" x2="56.69291" y2="131.10235" stroke="black" stroke-linecap="round" stroke-linejoin="round" stroke-width="1"/><circle cx="62.19537" cy="62.145624" r="3.750006" fill="#095bc5"/><circle cx="62.19537" cy="62.145624" r="3.750006" stroke="black" stroke-linecap="round" stroke-linejoin="round" stroke-width="1"/><circle cx="72.692686" cy="83.44459" r="3.750006" fill="#095bc5"/><circle cx="72.692686" cy="83.44459" r="3.750006" stroke="black" stroke-linecap="round" stroke-linejoin="round" stroke-width="1"/><rect x="155.9055" y="56.69291" width="85.039367" height="85.039365" stroke="black" stroke-linecap="round" stroke-linejoin="round" stroke-width="2"/><line x1="240.94487" y1="67.32283" x2="155.9055" y2="67.32283" stroke="black" stroke-linecap="round" stroke-linejoin="round" stroke-width="1"/><line x1="240.94487" y1="77.95275" x2="155.9055" y2="77.95275" stroke="black" stroke-linecap="round" stroke-linejoin="round" stroke-width="1"/><line x1="240.94487" y1="88.58267" x2="155.9055" y2="88.58267" stroke="black" stroke-linecap="round" stroke-linejoin="round" stroke-width="1"/><line x1="240.94487" y1="99.212594" x2="155.9055" y2="99.212594" stroke="black" stroke-linecap="round" stroke-linejoin="round" stroke-width="1"/><line x1="240.94487" y1="109.84251" x2="155.9055" y2="109.84251" stroke="black" stroke-linecap="round" stroke-linejoin="round" stroke-width="1"/><line x1="240.94487" y1="120.47243" x2="155.9055" y2="120.47243" stroke="black" stroke-linecap="round" stroke-linejoin="round" stroke-width="1"/><line x1="240.94487" y1="131.10235" x2="155.9055" y2="131.10235" stroke="black" stroke-linecap="round" stroke-linejoin="round" stroke-width="1"/><line x1="230.31495" y1="141.73228" x2="230.31495" y2="56.69291" stroke="black" stroke-linecap="round" stroke-linejoin="round" stroke-width="1"/><line x1="219.68503" y1="141.73228" x2="219.68503" y2="56.69291" stroke="black" stroke-linecap="round" stroke-linejoin="round" stroke-width="1"/><line x1="209.05511" y1="141.73228" x2="209.05511" y2="56.69291" stroke="black" stroke-linecap="round" stroke-linejoin="round" stroke-width="1"/><line x1="198.42518" y1="141.73228" x2="198.42518" y2="56.69291" stroke="black" stroke-linecap="round" stroke-linejoin="round" stroke-width="1"/><line x1="187.79527" y1="141.73228" x2="187.79527" y2="56.69291" stroke="black" stroke-linecap="round" stroke-linejoin="round" stroke-width="1"/><line x1="177.16535" y1="141.73228" x2="177.16535" y2="56.69291" stroke="black" stroke-linecap="round" stroke-linejoin="round" stroke-width="1"/><line x1="166.53543" y1="141.73228" x2="166.53543" y2="56.69291" stroke="black" stroke-linecap="round" stroke-linejoin="round" stroke-width="1"/><circle cx="235.49216" cy="62.19537" r="3.750006" fill="#095bc5"/><circle cx="235.49216" cy="62.19537" r="3.750006" stroke="black" stroke-linecap="round" stroke-linejoin="round" stroke-width="1"/><circle cx="214.19319" cy="72.692686" r="3.750006" fill="#095bc5"/><circle cx="214.19319" cy="72.692686" r="3.750006" stroke="black" stroke-linecap="round" stroke-linejoin="round" stroke-width="1"/><rect x="255.11809" y="56.69291" width="85.039365" height="85.039367" stroke="black" stroke-linecap="round" stroke-linejoin="round" stroke-width="2"/><line x1="329.52753" y1="141.73228" x2="329.52753" y2="56.69291" stroke="black" stroke-linecap="round" stroke-linejoin="round" stroke-width="1"/><line x1="318.89761" y1="141.73228" x2="318.89761" y2="56.69291" stroke="black" stroke-linecap="round" stroke-linejoin="round" stroke-width="1"/><line x1="308.2677" y1="141.73228" x2="308.2677" y2="56.69291" stroke="black" stroke-linecap="round" stroke-linejoin="round" stroke-width="1"/><line x1="297.63777" y1="141.73228" x2="297.63777" y2="56.69291" stroke="black" stroke-linecap="round" stroke-linejoin="round" stroke-width="1"/><line x1="287.00786" y1="141.73228" x2="287.00786" y2="56.69291" stroke="black" stroke-linecap="round" stroke-linejoin="round" stroke-width="1"/><line x1="276.37793" y1="141.73228" x2="276.37793" y2="56.69291" stroke="black" stroke-linecap="round" stroke-linejoin="round" stroke-width="1"/><line x1="265.74801" y1="141.73228" x2="265.74801" y2="56.69291" stroke="black" stroke-linecap="round" stroke-linejoin="round" stroke-width="1"/><line x1="255.11809" y1="131.102355" x2="340.15746" y2="131.102355" stroke="black" stroke-linecap="round" stroke-linejoin="round" stroke-width="1"/><line x1="255.11809" y1="120.472435" x2="340.15746" y2="120.472435" stroke="black" stroke-linecap="round" stroke-linejoin="round" stroke-width="1"/><line x1="255.11809" y1="109.842516" x2="340.15746" y2="109.842516" stroke="black" stroke-linecap="round" stroke-linejoin="round" stroke-width="1"/><line x1="255.11809" y1="99.21259" x2="340.15746" y2="99.21259" stroke="black" stroke-linecap="round" stroke-linejoin="round" stroke-width="1"/><line x1="255.11809" y1="88.582677" x2="340.15746" y2="88.582677" stroke="black" stroke-linecap="round" stroke-linejoin="round" stroke-width="1"/><line x1="255.11809" y1="77.95275" x2="340.15746" y2="77.95275" stroke="black" stroke-linecap="round" stroke-linejoin="round" stroke-width="1"/><line x1="255.11809" y1="67.322833" x2="340.15746" y2="67.322833" stroke="black" stroke-linecap="round" stroke-linejoin="round" stroke-width="1"/><circle cx="334.655" cy="136.27956" r="3.750006" fill="#095bc5"/><circle cx="334.655" cy="136.27956" r="3.750006" stroke="black" stroke-linecap="round" stroke-linejoin="round" stroke-width="1"/><circle cx="324.15768" cy="114.980595" r="3.750006" fill="#095bc5"/><circle cx="324.15768" cy="114.980595" r="3.750006" stroke="black" stroke-linecap="round" stroke-linejoin="round" stroke-width="1"/><rect x="354.33069" y="56.692912" width="85.039367" height="85.039365" stroke="black" stroke-linecap="round" stroke-linejoin="round" stroke-width="2"/><line x1="354.33069" y1="131.102355" x2="439.37006" y2="131.102355" stroke="black" stroke-linecap="round" stroke-linejoin="round" stroke-width="1"/><line x1="354.33069" y1="120.472436" x2="439.37006" y2="120.472436" stroke="black" stroke-linecap="round" stroke-linejoin="round" stroke-width="1"/><line x1="354.33069" y1="109.842517" x2="439.37006" y2="109.842517" stroke="black" stroke-linecap="round" stroke-linejoin="round" stroke-width="1"/><line x1="354.33069" y1="99.21259" x2="439.37006" y2="99.21259" stroke="black" stroke-linecap="round" stroke-linejoin="round" stroke-width="1"/><line x1="354.33069" y1="88.58268" x2="439.37006" y2="88.58268" stroke="black" stroke-linecap="round" stroke-linejoin="round" stroke-width="1"/><line x1="354.33069" y1="77.952753" x2="439.37006" y2="77.952753" stroke="black" stroke-linecap="round" stroke-linejoin="round" stroke-width="1"/><line x1="354.33069" y1="67.322834" x2="439.37006" y2="67.322834" stroke="black" stroke-linecap="round" stroke-linejoin="round" stroke-width="1"/><line x1="364.9606" y1="56.69291" x2="364.9606" y2="141.73228" stroke="black" stroke-linecap="round" stroke-linejoin="round" stroke-width="1"/><line x1="375.59053" y1="56.69291" x2="375.59053" y2="141.73228" stroke="black" stroke-linecap="round" stroke-linejoin="round" stroke-width="1"/><line x1="386.22045" y1="56.69291" x2="386.22045" y2="141.73228" stroke="black" stroke-linecap="round" stroke-linejoin="round" stroke-width="1"/><line x1="396.85037" y1="56.69291" x2="396.85037" y2="141.73228" stroke="black" stroke-linecap="round" stroke-linejoin="round" stroke-width="1"/><line x1="407.4803" y1="56.69291" x2="407.4803" y2="141.73228" stroke="black" stroke-linecap="round" stroke-linejoin="round" stroke-width="1"/><line x1="418.11021" y1="56.69291" x2="418.11021" y2="141.73228" stroke="black" stroke-linecap="round" stroke-linejoin="round" stroke-width="1"/><line x1="428.74013" y1="56.69291" x2="428.74013" y2="141.73228" stroke="black" stroke-linecap="round" stroke-linejoin="round" stroke-width="1"/><circle cx="359.7834" cy="136.229815" r="3.750006" fill="#095bc5"/><circle cx="359.7834" cy="136.229815" r="3.750006" stroke="black" stroke-linecap="round" stroke-linejoin="round" stroke-width="1"/><circle cx="381.08237" cy="125.7325" r="3.750006" fill="#095bc5"/><circle cx="381.08237" cy="125.7325" r="3.750006" stroke="black" stroke-linecap="round" stroke-linejoin="round" stroke-width="1"/><rect x="56.69291" y="155.9055" width="85.039365" height="85.039367" stroke="black" stroke-linecap="round" stroke-linejoin="round" stroke-width="2"/><line x1="67.32283" y1="240.94487" x2="67.32283" y2="155.9055" stroke="black" stroke-linecap="round" stroke-linejoin="round" stroke-width="1"/><line x1="77.95275" y1="240.94487" x2="77.95275" y2="155.9055" stroke="black" stroke-linecap="round" stroke-linejoin="round" stroke-width="1"/><line x1="88.58267" y1="240.94487" x2="88.58267" y2="155.9055" stroke="black" stroke-linecap="round" stroke-linejoin="round" stroke-width="1"/><line x1="99.212594" y1="240.94487" x2="99.212594" y2="155.9055" stroke="black" stroke-linecap="round" stroke-linejoin="round" stroke-width="1"/><line x1="109.84251" y1="240.94487" x2="109.84251" y2="155.9055" stroke="black" stroke-linecap="round" stroke-linejoin="round" stroke-width="1"/><line x1="120.47243" y1="240.94487" x2="120.47243" y2="155.9055" stroke="black" stroke-linecap="round" stroke-linejoin="round" stroke-width="1"/><line x1="131.10235" y1="240.94487" x2="131.10235" y2="155.9055" stroke="black" stroke-linecap="round" stroke-linejoin="round" stroke-width="1"/><line x1="141.73228" y1="230.31495" x2="56.69291" y2="230.31495" stroke="black" stroke-linecap="round" stroke-linejoin="round" stroke-width="1"/><line x1="141.73228" y1="219.68503" x2="56.69291" y2="219.68503" stroke="black" stroke-linecap="round" stroke-linejoin="round" stroke-width="1"/><line x1="141.73228" y1="209.05511" x2="56.69291" y2="209.05511" stroke="black" stroke-linecap="round" stroke-linejoin="round" stroke-width="1"/><line x1="141.73228" y1="198.42518" x2="56.69291" y2="198.42518" stroke="black" stroke-linecap="round" stroke-linejoin="round" stroke-width="1"/><line x1="141.73228" y1="187.79527" x2="56.69291" y2="187.79527" stroke="black" stroke-linecap="round" stroke-linejoin="round" stroke-width="1"/><line x1="141.73228" y1="177.16535" x2="56.69291" y2="177.16535" stroke="black" stroke-linecap="round" stroke-linejoin="round" stroke-width="1"/><line x1="141.73228" y1="166.53543" x2="56.69291" y2="166.53543" stroke="black" stroke-linecap="round" stroke-linejoin="round" stroke-width="1"/><circle cx="62.19537" cy="235.49216" r="3.750006" fill="#095bc5"/><circle cx="62.19537" cy="235.49216" r="3.750006" stroke="black" stroke-linecap="round" stroke-linejoin="round" stroke-width="1"/><circle cx="72.692686" cy="214.19319" r="3.750006" fill="#095bc5"/><circle cx="72.692686" cy="214.19319" r="3.750006" stroke="black" stroke-linecap="round" stroke-linejoin="round" stroke-width="1"/><rect x="155.9055" y="155.9055" width="85.039367" height="85.039365" stroke="black" stroke-linecap="round" stroke-linejoin="round" stroke-width="2"/><line x1="155.9055" y1="166.53542" x2="240.94487" y2="166.53542" stroke="black" stroke-linecap="round" stroke-linejoin="round" stroke-width="1"/><line x1="155.9055" y1="177.16534" x2="240.94487" y2="177.16534" stroke="black" stroke-linecap="round" stroke-linejoin="round" stroke-width="1"/><line x1="155.9055" y1="187.79526" x2="240.94487" y2="187.79526" stroke="black" stroke-linecap="round" stroke-linejoin="round" stroke-width="1"/><line x1="155.9055" y1="198.42519" x2="240.94487" y2="198.42519" stroke="black" stroke-linecap="round" stroke-linejoin="round" stroke-width="1"/><line x1="155.9055" y1="209.0551" x2="240.94487" y2="209.0551" stroke="black" stroke-linecap="round" stroke-linejoin="round" stroke-width="1"/><line x1="155.9055" y1="219.68503" x2="240.94487" y2="219.68503" stroke="black" stroke-linecap="round" stroke-linejoin="round" stroke-width="1"/><line x1="155.9055" y1="230.31494" x2="240.94487" y2="230.31494" stroke="black" stroke-linecap="round" stroke-linejoin="round" stroke-width="1"/><line x1="166.53542" y1="240.94487" x2="166.53542" y2="155.9055" stroke="black" stroke-linecap="round" stroke-linejoin="round" stroke-width="1"/><line x1="177.16534" y1="240.94487" x2="177.16534" y2="155.9055" stroke="black" stroke-linecap="round" stroke-linejoin="round" stroke-width="1"/><line x1="187.79526" y1="240.94487" x2="187.79526" y2="155.9055" stroke="black" stroke-linecap="round" stroke-linejoin="round" stroke-width="1"/><line x1="198.42519" y1="240.94487" x2="198.42519" y2="155.9055" stroke="black" stroke-linecap="round" stroke-linejoin="round" stroke-width="1"/><line x1="209.0551" y1="240.94487" x2="209.0551" y2="155.9055" stroke="black" stroke-linecap="round" stroke-linejoin="round" stroke-width="1"/><line x1="219.68503" y1="240.94487" x2="219.68503" y2="155.9055" stroke="black" stroke-linecap="round" stroke-linejoin="round" stroke-width="1"/><line x1="230.31495" y1="240.94487" x2="230.31495" y2="155.9055" stroke="black" stroke-linecap="round" stroke-linejoin="round" stroke-width="1"/><circle cx="161.35822" cy="161.40796" r="3.750006" fill="#095bc5"/><circle cx="161.35822" cy="161.40796" r="3.750006" stroke="black" stroke-linecap="round" stroke-linejoin="round" stroke-width="1"/><circle cx="182.65718" cy="171.90528" r="3.750006" fill="#095bc5"/><circle cx="182.65718" cy="171.90528" r="3.750006" stroke="black" stroke-linecap="round" stroke-linejoin="round" stroke-width="1"/><rect x="255.11809" y="155.9055" width="85.039365" height="85.039367" stroke="black" stroke-linecap="round" stroke-linejoin="round" stroke-width="2"/><line x1="329.52753" y1="155.9055" x2="329.52753" y2="240.94487" stroke="black" stroke-linecap="round" stroke-linejoin="round" stroke-width="1"/><line x1="318.89761" y1="155.9055" x2="318.89761" y2="240.94487" stroke="black" stroke-linecap="round" stroke-linejoin="round" stroke-width="1"/><line x1="308.2677" y1="155.9055" x2="308.2677" y2="240.94487" stroke="black" stroke-linecap="round" stroke-linejoin="round" stroke-width="1"/><line x1="297.63777" y1="155.9055" x2="297.63777" y2="240.94487" stroke="black" stroke-linecap="round" stroke-linejoin="round" stroke-width="1"/><line x1="287.00786" y1="155.9055" x2="287.00786" y2="240.94487" stroke="black" stroke-linecap="round" stroke-linejoin="round" stroke-width="1"/><line x1="276.37793" y1="155.9055" x2="276.37793" y2="240.94487" stroke="black" stroke-linecap="round" stroke-linejoin="round" stroke-width="1"/><line x1="265.74801" y1="155.9055" x2="265.74801" y2="240.94487" stroke="black" stroke-linecap="round" stroke-linejoin="round" stroke-width="1"/><line x1="255.11809" y1="166.53542" x2="340.15746" y2="166.53542" stroke="black" stroke-linecap="round" stroke-linejoin="round" stroke-width="1"/><line x1="255.11809" y1="177.16534" x2="340.15746" y2="177.16534" stroke="black" stroke-linecap="round" stroke-linejoin="round" stroke-width="1"/><line x1="255.11809" y1="187.79526" x2="340.15746" y2="187.79526" stroke="black" stroke-linecap="round" stroke-linejoin="round" stroke-width="1"/><line x1="255.11809" y1="198.42519" x2="340.15746" y2="198.42519" stroke="black" stroke-linecap="round" stroke-linejoin="round" stroke-width="1"/><line x1="255.11809" y1="209.0551" x2="340.15746" y2="209.0551" stroke="black" stroke-linecap="round" stroke-linejoin="round" stroke-width="1"/><line x1="255.11809" y1="219.68503" x2="340.15746" y2="219.68503" stroke="black" stroke-linecap="round" stroke-linejoin="round" stroke-width="1"/><line x1="255.11809" y1="230.31495" x2="340.15746" y2="230.31495" stroke="black" stroke-linecap="round" stroke-linejoin="round" stroke-width="1"/><circle cx="334.655" cy="161.35822" r="3.750006" fill="#095bc5"/><circle cx="334.655" cy="161.35822" r="3.750006" stroke="black" stroke-linecap="round" stroke-linejoin="round" stroke-width="1"/><circle cx="324.15768" cy="182.65718" r="3.750006" fill="#095bc5"/><circle cx="324.15768" cy="182.65718" r="3.750006" stroke="black" stroke-linecap="round" stroke-linejoin="round" stroke-width="1"/><rect x="354.3307" y="155.90551" width="85.039367" height="85.039365" stroke="black" stroke-linecap="round" stroke-linejoin="round" stroke-width="2"/><line x1="439.37006" y1="230.31495" x2="354.33069" y2="230.31495" stroke="black" stroke-linecap="round" stroke-linejoin="round" stroke-width="1"/><line x1="439.37006" y1="219.68503" x2="354.33069" y2="219.68503" stroke="black" stroke-linecap="round" stroke-linejoin="round" stroke-width="1"/><line x1="439.37006" y1="209.05511" x2="354.33069" y2="209.05511" stroke="black" stroke-linecap="round" stroke-linejoin="round" stroke-width="1"/><line x1="439.37006" y1="198.42518" x2="354.33069" y2="198.42518" stroke="black" stroke-linecap="round" stroke-linejoin="round" stroke-width="1"/><line x1="439.37006" y1="187.79527" x2="354.33069" y2="187.79527" stroke="black" stroke-linecap="round" stroke-linejoin="round" stroke-width="1"/><line x1="439.37006" y1="177.16535" x2="354.33069" y2="177.16535" stroke="black" stroke-linecap="round" stroke-linejoin="round" stroke-width="1"/><line x1="439.37006" y1="166.53543" x2="354.33069" y2="166.53543" stroke="black" stroke-linecap="round" stroke-linejoin="round" stroke-width="1"/><line x1="428.74013" y1="155.9055" x2="428.74013" y2="240.94487" stroke="black" stroke-linecap="round" stroke-linejoin="round" stroke-width="1"/><line x1="418.11021" y1="155.9055" x2="418.11021" y2="240.94487" stroke="black" stroke-linecap="round" stroke-linejoin="round" stroke-width="1"/><line x1="407.4803" y1="155.9055" x2="407.4803" y2="240.94487" stroke="black" stroke-linecap="round" stroke-linejoin="round" stroke-width="1"/><line x1="396.85037" y1="155.9055" x2="396.85037" y2="240.94487" stroke="black" stroke-linecap="round" stroke-linejoin="round" stroke-width="1"/><line x1="386.22046" y1="155.9055" x2="386.22046" y2="240.94487" stroke="black" stroke-linecap="round" stroke-linejoin="round" stroke-width="1"/><line x1="375.59053" y1="155.9055" x2="375.59053" y2="240.94487" stroke="black" stroke-linecap="round" stroke-linejoin="round" stroke-width="1"/><line x1="364.96061" y1="155.9055" x2="364.96061" y2="240.94487" stroke="black" stroke-linecap="round" stroke-linejoin="round" stroke-width="1"/><circle cx="433.91734" cy="235.44241" r="3.750006" fill="#095bc5"/><circle cx="433.91734" cy="235.44241" r="3.750006" stroke="black" stroke-linecap="round" stroke-linejoin="round" stroke-width="1"/><circle cx="412.61837" cy="224.94509" r="3.750006" fill="#095bc5"/><circle cx="412.61837" cy="224.94509" r="3.750006" stroke="black" stroke-linecap="round" stroke-linejoin="round" stroke-width="1"/></g></g></svg>
