<?xml version="1.0" encoding="UTF-8"?>
<!-- Created with Inkscape (http://www.inkscape.org/) -->
<svg width="534.67" height="138.67" version="1.1" viewBox="0 0 534.66669 138.66667" xml:space="preserve" xmlns="http://www.w3.org/2000/svg" xmlns:cc="http://creativecommons.org/ns#" xmlns:dc="http://purl.org/dc/elements/1.1/" xmlns:rdf="http://www.w3.org/1999/02/22-rdf-syntax-ns#"><metadata><rdf:RDF><cc:Work rdf:about=""><dc:format>image/svg+xml</dc:format><dc:type rdf:resource="http://purl.org/dc/dcmitype/StillImage"/><dc:title/></cc:Work></rdf:RDF></metadata><g transform="matrix(1.3333 0 0 -1.3333 0 138.67)"><path d="m-51.5-604.5h559v783h-559z" fill="#fff"/><g transform="matrix(1,0,0,-1,22,16)"><text transform="translate(-3.3369 4)" fill="#000000" font-family="Helvetica" font-size="12px"><tspan x="0" y="0">0</tspan></text>
</g><g transform="matrix(1,0,0,-1,162.5,16)"><text transform="translate(-6.6738 4)" fill="#000000" font-family="Helvetica" font-size="12px"><tspan x="0 6.6743999" y="0">60</tspan></text>
</g><g transform="matrix(1,0,0,-1,310,16)"><text transform="translate(-10.011 4)" fill="#000000" font-family="Helvetica" font-size="12px"><tspan x="0 6.6743999 13.3488" y="0">120</tspan></text>
</g><g transform="matrix(1,0,0,-1,94,16)"><text transform="translate(-6.6738 4)" fill="#000000" font-family="Helvetica" font-size="12px"><tspan x="0 6.6743999" y="0">30</tspan></text>
</g><g transform="matrix(1,0,0,-1,238,16)"><text transform="translate(-6.6738 4)" fill="#000000" font-family="Helvetica" font-size="12px"><tspan x="0 6.6743999" y="0">90</tspan></text>
</g><path d="m21.25 33.5h144.25v36h-144.25z" fill="#fff"/><g transform="matrix(1,0,0,-1,-50.5,177.5)"><path d="m71.75 108h144.25v36h-144.25z" fill="none" stroke="#000" stroke-linecap="round" stroke-linejoin="round" stroke-miterlimit="10"/></g><g transform="matrix(1,0,0,-1,92.875,52)"><text transform="translate(-14.681 4)" fill="#000000" font-family="Helvetica" font-size="12px"><tspan x="0 6.6743999 9.3408003 16.0152 22.6896" y="0">piano</tspan></text>
</g><path d="m237.75 51.5h72.25v36h-72.25z" fill="#fff"/><g transform="matrix(1,0,0,-1,-50.5,177.5)"><path d="m288.25 90h72.25v36h-72.25z" fill="none" stroke="#000" stroke-linecap="round" stroke-linejoin="round" stroke-miterlimit="10"/></g><g transform="matrix(1,0,0,-1,13,34)"><text transform="translate(-3.3369 4)" fill="#000000" font-family="Helvetica" font-size="12px"><tspan x="0" y="0">0</tspan></text>
</g><g transform="matrix(1,0,0,-1,13,52)"><text transform="translate(-3.3369 4)" fill="#000000" font-family="Helvetica" font-size="12px"><tspan x="0" y="0">1</tspan></text>
</g><g transform="matrix(1,0,0,-1,13,70)"><text transform="translate(-3.3369 4)" fill="#000000" font-family="Helvetica" font-size="12px"><tspan x="0" y="0">2</tspan></text>
</g><g transform="matrix(1,0,0,-1,13,88)"><text transform="translate(-3.3369 4)" fill="#000000" font-family="Helvetica" font-size="12px"><tspan x="0" y="0">3</tspan></text>
</g><path d="m165.5 33.5h108.25v18h-108.25z" fill="#fff"/><g transform="matrix(1,0,0,-1,-50.5,177.5)"><path d="m216 126h108.25v18h-108.25z" fill="none" stroke="#000" stroke-linecap="round" stroke-linejoin="round" stroke-miterlimit="10"/></g><g transform="matrix(1 0 0 -1 219.12 43)"><text x="-30.008791" y="4" fill="#000000" font-family="Helvetica" font-size="12px"><tspan x="-30.008791" y="4">refrigerador</tspan></text>
</g><path d="m165.5 51.5h72.25v36h-72.25z" fill="#fff"/><g transform="matrix(1,0,0,-1,-50.5,177.5)"><path d="m216 90h72.25v36h-72.25z" fill="none" stroke="#000" stroke-linecap="round" stroke-linejoin="round" stroke-miterlimit="10"/></g><g transform="matrix(1 0 0 -1 201.12 70)"><text transform="translate(-29.695 4)" fill="#000000" font-family="Helvetica" font-size="12px"><tspan x="0" y="0">cama doble</tspan></text>
</g><path d="m310 33.5h49.114v36h-49.114z" fill="#fff"/><g transform="matrix(1,0,0,-1,-50.5,177.5)"><path d="m360.5 108h49.114v36h-49.114z" fill="none" stroke="#000" stroke-linecap="round" stroke-linejoin="round" stroke-miterlimit="10"/></g><g transform="matrix(1 0 0 -1 334.06 52)"><text x="-17.504881" y="-3" fill="#000000" font-family="Helvetica" font-size="12px"><tspan x="-17.504881" y="-3">guarda</tspan></text>
</g><g transform="matrix(1 0 0 -1 334.06 52)"><text transform="translate(-12.009 11)" fill="#000000" font-family="Helvetica" font-size="12px"><tspan x="0" y="0">ropa</tspan></text>
</g><path d="m272.75 33.5h37.25v18h-37.25z" fill="#fff"/><g transform="matrix(1,0,0,-1,-50.5,177.5)"><path d="m323.25 126h37.25v18h-37.25z" fill="none" stroke="#000" stroke-linecap="round" stroke-linejoin="round" stroke-miterlimit="10"/></g><g transform="matrix(1 0 0 -1 289.38 43)"><text transform="translate(-13.011 4)" fill="#000000" font-family="Helvetica" font-size="12px"><tspan x="0" y="0">mesa</tspan></text>
</g><g transform="matrix(1 0 0 -1 380.8 16)"><text transform="translate(-10.011 4)" fill="#000000" font-family="Helvetica" font-size="12px"><tspan x="0 6.6743999 13.3488" y="0">150</tspan></text>
</g><g transform="matrix(1 0 0 -1 270.66 69.421)" fill="#000000" font-family="Helvetica" font-size="12px"><text x="-12.310916" y="-2.9537578"><tspan x="-12.310916" y="-2.9537578">cama</tspan></text>
<text x="-23.321032" y="9.7947979"><tspan x="-23.321032" y="9.7947979">individual</tspan></text>
</g></g></svg>
