<?xml version="1.0" encoding="UTF-8" standalone="no"?>
<svg
   xmlns:dc="http://purl.org/dc/elements/1.1/"
   xmlns:cc="http://creativecommons.org/ns#"
   xmlns:rdf="http://www.w3.org/1999/02/22-rdf-syntax-ns#"
   xmlns:svg="http://www.w3.org/2000/svg"
   xmlns="http://www.w3.org/2000/svg"
   viewBox="0 0 504 450.66666"
   height="450.66666"
   width="504"
   xml:space="preserve"
   id="svg2"
   version="1.1"><metadata
     id="metadata8"><rdf:RDF><cc:Work
         rdf:about=""><dc:format>image/svg+xml</dc:format><dc:type
           rdf:resource="http://purl.org/dc/dcmitype/StillImage" /></cc:Work></rdf:RDF></metadata><defs
     id="defs6" /><g
     transform="matrix(1.3333333,0,0,-1.3333333,0,450.66667)"
     id="g10"><g
       id="g12" /><g
       id="g14"><path
         id="path16"
         style="fill:#ffffff;fill-opacity:1;fill-rule:nonzero;stroke:none"
         d="m 74.22791,224.2279 c 7.02947,-7.0294 7.02947,-18.4264 0,-25.4558 -7.02943,-7.0295 -18.42639,-7.0295 -25.45582,0 -7.02947,7.0294 -7.02947,18.4264 0,25.4558 7.02943,7.0295 18.42639,7.0295 25.45582,0" /><g
         transform="matrix(1,0,0,-1,-72.5,356.5)"
         id="g18"><path
           id="path20"
           style="fill:none;stroke:#000000;stroke-width:1;stroke-linecap:round;stroke-linejoin:round;stroke-miterlimit:10;stroke-dasharray:none;stroke-opacity:1"
           d="m 146.7279,132.2721 c 7.0295,7.0294 7.0295,18.4264 0,25.4558 -7.0294,7.0295 -18.4264,7.0295 -25.4558,0 -7.0295,-7.0294 -7.0295,-18.4264 0,-25.4558 7.0294,-7.0295 18.4264,-7.0295 25.4558,0" /></g><g
         transform="matrix(1,0,0,-1,61,212)"
         id="g22"><text
           id="text26"
           style="font-variant:normal;font-weight:bold;font-size:18px;font-family:Helvetica;-inkscape-font-specification:Helvetica-Bold;writing-mode:lr-tb;fill:#000000;fill-opacity:1;fill-rule:nonzero;stroke:none"
           transform="translate(-5.005371,7)"><tspan
             id="tspan24"
             y="0"
             x="0">1</tspan></text>
</g><path
         id="path28"
         style="fill:#ffffff;fill-opacity:1;fill-rule:nonzero;stroke:none"
         d="m 173.2279,224.2279 c 7.0295,-7.0294 7.0295,-18.4264 0,-25.4558 -7.0294,-7.0295 -18.4264,-7.0295 -25.4558,0 -7.0295,7.0294 -7.0295,18.4264 0,25.4558 7.0294,7.0295 18.4264,7.0295 25.4558,0" /><g
         transform="matrix(1,0,0,-1,-72.5,356.5)"
         id="g30"><path
           id="path32"
           style="fill:none;stroke:#000000;stroke-width:1;stroke-linecap:round;stroke-linejoin:round;stroke-miterlimit:10;stroke-dasharray:none;stroke-opacity:1"
           d="m 245.7279,132.2721 c 7.0295,7.0294 7.0295,18.4264 0,25.4558 -7.0294,7.0295 -18.4264,7.0295 -25.4558,0 -7.0295,-7.0294 -7.0295,-18.4264 0,-25.4558 7.0294,-7.0295 18.4264,-7.0295 25.4558,0" /></g><g
         transform="matrix(1,0,0,-1,160,212)"
         id="g34"><text
           id="text38"
           style="font-variant:normal;font-weight:bold;font-size:18px;font-family:Helvetica;-inkscape-font-specification:Helvetica-Bold;writing-mode:lr-tb;fill:#000000;fill-opacity:1;fill-rule:nonzero;stroke:none"
           transform="translate(-5.005371,7)"><tspan
             id="tspan36"
             y="0"
             x="0">2</tspan></text>
</g><path
         id="path40"
         style="fill:#ffffff;fill-opacity:1;fill-rule:nonzero;stroke:none"
         d="m 173.2279,125.2279 c 7.0295,-7.0294 7.0295,-18.4264 0,-25.45581 -7.0294,-7.02947 -18.4264,-7.02947 -25.4558,0 -7.0295,7.02941 -7.0295,18.42641 0,25.45581 7.0294,7.0295 18.4264,7.0295 25.4558,0" /><g
         transform="matrix(1,0,0,-1,-72.5,356.5)"
         id="g42"><path
           id="path44"
           style="fill:none;stroke:#000000;stroke-width:1;stroke-linecap:round;stroke-linejoin:round;stroke-miterlimit:10;stroke-dasharray:none;stroke-opacity:1"
           d="m 245.7279,231.2721 c 7.0295,7.0294 7.0295,18.4264 0,25.4558 -7.0294,7.0295 -18.4264,7.0295 -25.4558,0 -7.0295,-7.0294 -7.0295,-18.4264 0,-25.4558 7.0294,-7.0295 18.4264,-7.0295 25.4558,0" /></g><g
         transform="matrix(1,0,0,-1,160,113)"
         id="g46"><text
           id="text50"
           style="font-variant:normal;font-weight:bold;font-size:18px;font-family:Helvetica;-inkscape-font-specification:Helvetica-Bold;writing-mode:lr-tb;fill:#000000;fill-opacity:1;fill-rule:nonzero;stroke:none"
           transform="translate(-5.005371,7)"><tspan
             id="tspan48"
             y="0"
             x="0">3</tspan></text>
</g><path
         id="path52"
         style="fill:#ffffff;fill-opacity:1;fill-rule:nonzero;stroke:none"
         d="m 272.2279,224.2279 c 7.0295,-7.0294 7.0295,-18.4264 0,-25.4558 -7.0294,-7.0295 -18.4264,-7.0295 -25.4558,0 -7.0295,7.0294 -7.0295,18.4264 0,25.4558 7.0294,7.0295 18.4264,7.0295 25.4558,0" /><g
         transform="matrix(1,0,0,-1,-72.5,356.5)"
         id="g54"><path
           id="path56"
           style="fill:none;stroke:#000000;stroke-width:1;stroke-linecap:round;stroke-linejoin:round;stroke-miterlimit:10;stroke-dasharray:none;stroke-opacity:1"
           d="m 344.7279,132.2721 c 7.0295,7.0294 7.0295,18.4264 0,25.4558 -7.0294,7.0295 -18.4264,7.0295 -25.4558,0 -7.0295,-7.0294 -7.0295,-18.4264 0,-25.4558 7.0294,-7.0295 18.4264,-7.0295 25.4558,0" /></g><g
         transform="matrix(1,0,0,-1,259,212)"
         id="g58"><text
           id="text62"
           style="font-variant:normal;font-weight:bold;font-size:18px;font-family:Helvetica;-inkscape-font-specification:Helvetica-Bold;writing-mode:lr-tb;fill:#000000;fill-opacity:1;fill-rule:nonzero;stroke:none"
           transform="translate(-5.005371,7)"><tspan
             id="tspan60"
             y="0"
             x="0">4</tspan></text>
</g><path
         id="path64"
         style="fill:#ffffff;fill-opacity:1;fill-rule:nonzero;stroke:none"
         d="m 272.2279,125.2279 c 7.0295,-7.0294 7.0295,-18.4264 0,-25.45581 -7.0294,-7.02947 -18.4264,-7.02947 -25.4558,0 -7.0295,7.02941 -7.0295,18.42641 0,25.45581 7.0294,7.0295 18.4264,7.0295 25.4558,0" /><g
         transform="matrix(1,0,0,-1,-72.5,356.5)"
         id="g66"><path
           id="path68"
           style="fill:none;stroke:#000000;stroke-width:1;stroke-linecap:round;stroke-linejoin:round;stroke-miterlimit:10;stroke-dasharray:none;stroke-opacity:1"
           d="m 344.7279,231.2721 c 7.0295,7.0294 7.0295,18.4264 0,25.4558 -7.0294,7.0295 -18.4264,7.0295 -25.4558,0 -7.0295,-7.0294 -7.0295,-18.4264 0,-25.4558 7.0294,-7.0295 18.4264,-7.0295 25.4558,0" /></g><g
         transform="matrix(1,0,0,-1,259,113)"
         id="g70"><text
           id="text74"
           style="font-variant:normal;font-weight:bold;font-size:18px;font-family:Helvetica;-inkscape-font-specification:Helvetica-Bold;writing-mode:lr-tb;fill:#000000;fill-opacity:1;fill-rule:nonzero;stroke:none"
           transform="translate(-5.005371,7)"><tspan
             id="tspan72"
             y="0"
             x="0">5</tspan></text>
</g><path
         id="path76"
         style="fill:#ffffff;fill-opacity:1;fill-rule:nonzero;stroke:none"
         d="m 371.2279,224.2279 c 7.0295,-7.0294 7.0295,-18.4264 0,-25.4558 -7.0294,-7.0295 -18.4264,-7.0295 -25.4558,0 -7.0295,7.0294 -7.0295,18.4264 0,25.4558 7.0294,7.0295 18.4264,7.0295 25.4558,0" /><g
         transform="matrix(1,0,0,-1,-72.5,356.5)"
         id="g78"><path
           id="path80"
           style="fill:none;stroke:#000000;stroke-width:1;stroke-linecap:round;stroke-linejoin:round;stroke-miterlimit:10;stroke-dasharray:none;stroke-opacity:1"
           d="m 443.7279,132.2721 c 7.0295,7.0294 7.0295,18.4264 0,25.4558 -7.0294,7.0295 -18.4264,7.0295 -25.4558,0 -7.0295,-7.0294 -7.0295,-18.4264 0,-25.4558 7.0294,-7.0295 18.4264,-7.0295 25.4558,0" /></g><g
         transform="matrix(1,0,0,-1,358,212)"
         id="g82"><text
           id="text86"
           style="font-variant:normal;font-weight:bold;font-size:18px;font-family:Helvetica;-inkscape-font-specification:Helvetica-Bold;writing-mode:lr-tb;fill:#000000;fill-opacity:1;fill-rule:nonzero;stroke:none"
           transform="translate(-5.005371,7)"><tspan
             id="tspan84"
             y="0"
             x="0">6</tspan></text>
</g><g
         transform="matrix(1,0,0,-1,-72.5,356.5)"
         id="g88"><path
           id="path90"
           style="fill:none;stroke:#000000;stroke-width:1;stroke-linecap:round;stroke-linejoin:round;stroke-miterlimit:10;stroke-dasharray:none;stroke-opacity:1"
           d="m 75,145 h 31.1" /></g><path
         id="path92"
         style="fill:#000000;fill-opacity:1;fill-rule:nonzero;stroke:none"
         d="m 41.59999,211.5 -8,3 v -6 z" /><g
         transform="matrix(1,0,0,-1,-72.5,356.5)"
         id="g94"><path
           id="path96"
           style="fill:none;stroke:#000000;stroke-width:1;stroke-linecap:butt;stroke-linejoin:miter;stroke-miterlimit:10;stroke-dasharray:none;stroke-opacity:1"
           d="m 114.1,145 -8,-3 v 6 z" /></g><g
         transform="matrix(1,0,0,-1,-72.5,356.5)"
         id="g98"><path
           id="path100"
           style="fill:none;stroke:#000000;stroke-width:1;stroke-linecap:round;stroke-linejoin:round;stroke-miterlimit:10;stroke-dasharray:none;stroke-opacity:1"
           d="m 152,145 h 53.1" /></g><path
         id="path102"
         style="fill:#000000;fill-opacity:1;fill-rule:nonzero;stroke:none"
         d="m 140.6,211.5 -8,3 v -6 z" /><g
         transform="matrix(1,0,0,-1,-72.5,356.5)"
         id="g104"><path
           id="path106"
           style="fill:none;stroke:#000000;stroke-width:1;stroke-linecap:butt;stroke-linejoin:miter;stroke-miterlimit:10;stroke-dasharray:none;stroke-opacity:1"
           d="m 213.1,145 -8,-3 v 6 z" /></g><g
         transform="matrix(1,0,0,-1,-72.5,356.5)"
         id="g108"><path
           id="path110"
           style="fill:none;stroke:#000000;stroke-width:1;stroke-linecap:round;stroke-linejoin:round;stroke-miterlimit:10;stroke-dasharray:none;stroke-opacity:1"
           d="m 251,145 h 53.1" /></g><path
         id="path112"
         style="fill:#000000;fill-opacity:1;fill-rule:nonzero;stroke:none"
         d="m 239.6,211.5 -8,3 v -6 z" /><g
         transform="matrix(1,0,0,-1,-72.5,356.5)"
         id="g114"><path
           id="path116"
           style="fill:none;stroke:#000000;stroke-width:1;stroke-linecap:butt;stroke-linejoin:miter;stroke-miterlimit:10;stroke-dasharray:none;stroke-opacity:1"
           d="m 312.1,145 -8,-3 v 6 z" /></g><g
         transform="matrix(1,0,0,-1,-72.5,356.5)"
         id="g118"><path
           id="path120"
           style="fill:none;stroke:#000000;stroke-width:1;stroke-linecap:round;stroke-linejoin:round;stroke-miterlimit:10;stroke-dasharray:none;stroke-opacity:1"
           d="m 350,145 h 53.1" /></g><path
         id="path122"
         style="fill:#000000;fill-opacity:1;fill-rule:nonzero;stroke:none"
         d="m 338.6,211.5 -8,3 v -6 z" /><g
         transform="matrix(1,0,0,-1,-72.5,356.5)"
         id="g124"><path
           id="path126"
           style="fill:none;stroke:#000000;stroke-width:1;stroke-linecap:butt;stroke-linejoin:miter;stroke-miterlimit:10;stroke-dasharray:none;stroke-opacity:1"
           d="m 411.1,145 -8,-3 v 6 z" /></g><g
         transform="matrix(1,0,0,-1,-72.5,356.5)"
         id="g128"><path
           id="path130"
           style="fill:none;stroke:#000000;stroke-width:1;stroke-linecap:round;stroke-linejoin:round;stroke-miterlimit:10;stroke-dasharray:none;stroke-opacity:1"
           d="m 147.0815,158.0815 66.1902,66.1902" /></g><path
         id="path132"
         style="fill:#000000;fill-opacity:1;fill-rule:nonzero;stroke:none"
         d="m 146.4286,126.5714 -3.5355,7.7782 -4.2427,-4.2427 z" /><g
         transform="matrix(1,0,0,-1,-72.5,356.5)"
         id="g134"><path
           id="path136"
           style="fill:none;stroke:#000000;stroke-width:1;stroke-linecap:butt;stroke-linejoin:miter;stroke-miterlimit:10;stroke-dasharray:none;stroke-opacity:1"
           d="m 218.9286,229.9286 -3.5355,-7.7782 -4.2427,4.2427 z" /></g><g
         transform="matrix(1,0,0,-1,-72.5,356.5)"
         id="g138"><path
           id="path140"
           style="fill:none;stroke:#000000;stroke-width:1;stroke-linecap:round;stroke-linejoin:round;stroke-miterlimit:10;stroke-dasharray:none;stroke-opacity:1"
           d="m 251,244 h 53.1" /></g><path
         id="path142"
         style="fill:#000000;fill-opacity:1;fill-rule:nonzero;stroke:none"
         d="m 239.6,112.5 -8,3 v -6 z" /><g
         transform="matrix(1,0,0,-1,-72.5,356.5)"
         id="g144"><path
           id="path146"
           style="fill:none;stroke:#000000;stroke-width:1;stroke-linecap:butt;stroke-linejoin:miter;stroke-miterlimit:10;stroke-dasharray:none;stroke-opacity:1"
           d="m 312.1,244 -8,-3 v 6 z" /></g><g
         transform="matrix(1,0,0,-1,-72.5,356.5)"
         id="g148"><path
           id="path150"
           style="fill:none;stroke:#000000;stroke-width:1;stroke-linecap:round;stroke-linejoin:round;stroke-miterlimit:10;stroke-dasharray:none;stroke-opacity:1"
           d="m 245.7279,231.2721 66.5438,-66.5438" /></g><path
         id="path152"
         style="fill:#000000;fill-opacity:1;fill-rule:nonzero;stroke:none"
         d="m 245.4286,197.4286 -7.7782,-3.5355 4.2427,-4.2427 z" /><g
         transform="matrix(1,0,0,-1,-72.5,356.5)"
         id="g154"><path
           id="path156"
           style="fill:none;stroke:#000000;stroke-width:1;stroke-linecap:butt;stroke-linejoin:miter;stroke-miterlimit:10;stroke-dasharray:none;stroke-opacity:1"
           d="m 317.9286,159.0714 -7.7782,3.5355 4.2427,4.2427 z" /></g><g
         transform="matrix(1,0,0,-1,-72.5,356.5)"
         id="g158"><path
           id="path160"
           style="fill:none;stroke:#000000;stroke-width:1;stroke-linecap:round;stroke-linejoin:round;stroke-miterlimit:10;stroke-dasharray:none;stroke-opacity:1"
           d="m 344.7279,231.2721 66.5438,-66.5438" /></g><path
         id="path162"
         style="fill:#000000;fill-opacity:1;fill-rule:nonzero;stroke:none"
         d="m 344.4286,197.4286 -7.7782,-3.5355 4.2427,-4.2427 z" /><g
         transform="matrix(1,0,0,-1,-72.5,356.5)"
         id="g164"><path
           id="path166"
           style="fill:none;stroke:#000000;stroke-width:1;stroke-linecap:butt;stroke-linejoin:miter;stroke-miterlimit:10;stroke-dasharray:none;stroke-opacity:1"
           d="m 416.9286,159.0714 -7.7782,3.5355 4.2427,4.2427 z" /></g><g
         transform="matrix(1,0,0,-1,-72.5,356.5)"
         id="g168"><path
           id="path170"
           style="fill:none;stroke:#000000;stroke-width:1;stroke-linecap:round;stroke-linejoin:round;stroke-miterlimit:10;stroke-dasharray:none;stroke-opacity:1"
           d="M 146.7279,132.2721 C 148.3377,123.0157 179,98 137,98 c -29.6953,0 -21.8253,13.7395 -17.0213,24.0283" /></g><path
         id="path172"
         style="fill:#000000;fill-opacity:1;fill-rule:nonzero;stroke:none"
         d="m 48.69251,226.5604 1.7521,8.3624 -5.9306,-0.9099 z" /><g
         transform="matrix(1,0,0,-1,-72.5,356.5)"
         id="g174"><path
           id="path176"
           style="fill:none;stroke:#000000;stroke-width:1;stroke-linecap:butt;stroke-linejoin:miter;stroke-miterlimit:10;stroke-dasharray:none;stroke-opacity:1"
           d="m 121.1925,129.9396 1.7521,-8.3624 -5.9306,0.9099 z" /></g><g
         transform="matrix(1,0,0,-1,-72.5,356.5)"
         id="g178"><path
           id="path180"
           style="fill:none;stroke:#000000;stroke-width:1;stroke-linecap:round;stroke-linejoin:round;stroke-miterlimit:10;stroke-dasharray:none;stroke-opacity:1"
           d="M 220.2721,132.2721 C 192.1333,107.7325 181.2175,116.6089 155.8015,128.303" /></g><path
         id="path182"
         style="fill:#000000;fill-opacity:1;fill-rule:nonzero;stroke:none"
         d="m 75.96865,224.9894 8.53174,0.4576 -2.4046,5.497 z" /><g
         transform="matrix(1,0,0,-1,-72.5,356.5)"
         id="g184"><path
           id="path186"
           style="fill:none;stroke:#000000;stroke-width:1;stroke-linecap:butt;stroke-linejoin:miter;stroke-miterlimit:10;stroke-dasharray:none;stroke-opacity:1"
           d="m 148.4687,131.5106 8.5317,-0.4576 -2.4046,-5.497 z" /></g><g
         transform="matrix(1,0,0,-1,-72.5,356.5)"
         id="g188"><path
           id="path190"
           style="fill:none;stroke:#000000;stroke-width:1;stroke-linecap:round;stroke-linejoin:round;stroke-miterlimit:10;stroke-dasharray:none;stroke-opacity:1"
           d="M 319.2721,132.2721 C 281.5053,90.65862 211.6218,68.71778 153.6058,125.1474" /></g><path
         id="path192"
         style="fill:#000000;fill-opacity:1;fill-rule:nonzero;stroke:none"
         d="m 75.54752,225.5949 7.71464,3.6721 -4.31677,4.1672 z" /><g
         transform="matrix(1,0,0,-1,-72.5,356.5)"
         id="g194"><path
           id="path196"
           style="fill:none;stroke:#000000;stroke-width:1;stroke-linecap:butt;stroke-linejoin:miter;stroke-miterlimit:10;stroke-dasharray:none;stroke-opacity:1"
           d="m 148.0475,130.9051 7.7147,-3.6721 -4.3168,-4.1672 z" /></g><g
         transform="matrix(1,0,0,-1,-72.5,356.5)"
         id="g198"><path
           id="path200"
           style="fill:none;stroke:#000000;stroke-width:1;stroke-linecap:round;stroke-linejoin:round;stroke-miterlimit:10;stroke-dasharray:none;stroke-opacity:1"
           d="M 418.2721,132.2721 C 342.7997,45.07924 242.784,22.0613 153.124,124.7132" /></g><path
         id="path202"
         style="fill:#000000;fill-opacity:1;fill-rule:nonzero;stroke:none"
         d="m 75.45521,225.6783 7.45773,4.1692 -4.58028,3.8757 z" /><g
         transform="matrix(1,0,0,-1,-72.5,356.5)"
         id="g204"><path
           id="path206"
           style="fill:none;stroke:#000000;stroke-width:1;stroke-linecap:butt;stroke-linejoin:miter;stroke-miterlimit:10;stroke-dasharray:none;stroke-opacity:1"
           d="m 147.9552,130.8217 7.4577,-4.1692 -4.5802,-3.8757 z" /></g><g
         transform="matrix(1,0,0,-1,-72.5,356.5)"
         id="g208"><path
           id="path210"
           style="fill:none;stroke:#000000;stroke-width:1;stroke-linecap:round;stroke-linejoin:round;stroke-miterlimit:10;stroke-dasharray:none;stroke-opacity:1"
           d="m 215,244 c -48.378,-5.4768 -79.259,-36.7824 -81.2351,-71.1011" /></g><path
         id="path212"
         style="fill:#000000;fill-opacity:1;fill-rule:nonzero;stroke:none"
         d="m 61.45489,191.6005 -3.18909,-7.9265 5.99831,-0.1424 z" /><g
         transform="matrix(1,0,0,-1,-72.5,356.5)"
         id="g214"><path
           id="path216"
           style="fill:none;stroke:#000000;stroke-width:1;stroke-linecap:butt;stroke-linejoin:miter;stroke-miterlimit:10;stroke-dasharray:none;stroke-opacity:1"
           d="m 133.9549,164.8995 -3.1891,7.9265 5.9983,0.1424 z" /></g><g
         transform="matrix(1,0,0,-1,-72.5,356.5)"
         id="g218"><path
           id="path220"
           style="fill:none;stroke:#000000;stroke-width:1;stroke-linecap:round;stroke-linejoin:round;stroke-miterlimit:10;stroke-dasharray:none;stroke-opacity:1"
           d="M 319.2721,256.7279 C 210.5798,351.8666 116.2012,270.5478 132.0699,172.7144" /></g><path
         id="path222"
         style="fill:#000000;fill-opacity:1;fill-rule:nonzero;stroke:none"
         d="m 61.12974,191.6364 -4.50148,-7.262 5.88497,-1.1692 z" /><g
         transform="matrix(1,0,0,-1,-72.5,356.5)"
         id="g224"><path
           id="path226"
           style="fill:none;stroke:#000000;stroke-width:1;stroke-linecap:butt;stroke-linejoin:miter;stroke-miterlimit:10;stroke-dasharray:none;stroke-opacity:1"
           d="m 133.6297,164.8636 -4.5014,7.262 5.8849,1.1692 z" /></g><path
         id="path228"
         style="fill:#ffffff;fill-opacity:1;fill-rule:nonzero;stroke:none"
         d="m 200.9587,312.1355 h 17 v -24 h -17 z" /><g
         transform="matrix(1,0,0,-1,209.4587,300.1355)"
         id="g230"><text
           id="text234"
           style="font-variant:normal;font-weight:normal;font-size:12px;font-family:Helvetica;-inkscape-font-specification:Helvetica;writing-mode:lr-tb;fill:#000000;fill-opacity:1;fill-rule:nonzero;stroke:none"
           transform="translate(-3.336914,4)"><tspan
             id="tspan232"
             y="0"
             x="0">o</tspan></text>
</g><path
         id="path236"
         style="fill:#ffffff;fill-opacity:1;fill-rule:nonzero;stroke:none"
         d="m 59.44715,270.9188 h 17 v -24 h -17 z" /><g
         transform="matrix(1,0,0,-1,67.94715,258.9188)"
         id="g238"><text
           id="text242"
           style="font-variant:normal;font-weight:normal;font-size:12px;font-family:Helvetica;-inkscape-font-specification:Helvetica;writing-mode:lr-tb;fill:#000000;fill-opacity:1;fill-rule:nonzero;stroke:none"
           transform="translate(-3.336914,4)"><tspan
             id="tspan240"
             y="0"
             x="0">o</tspan></text>
</g><path
         id="path244"
         style="fill:#ffffff;fill-opacity:1;fill-rule:nonzero;stroke:none"
         d="m 158.3991,277.4839 h 17 v -24 h -17 z" /><g
         transform="matrix(1,0,0,-1,166.8991,265.4839)"
         id="g246"><text
           id="text250"
           style="font-variant:normal;font-weight:normal;font-size:12px;font-family:Helvetica;-inkscape-font-specification:Helvetica;writing-mode:lr-tb;fill:#000000;fill-opacity:1;fill-rule:nonzero;stroke:none"
           transform="translate(-3.336914,4)"><tspan
             id="tspan248"
             y="0"
             x="0">o</tspan></text>
</g><path
         id="path252"
         style="fill:#ffffff;fill-opacity:1;fill-rule:nonzero;stroke:none"
         d="m 111.5595,252.0481 h 17 v -24 h -17 z" /><g
         transform="matrix(1,0,0,-1,120.0595,240.0481)"
         id="g254"><text
           id="text258"
           style="font-variant:normal;font-weight:normal;font-size:12px;font-family:Helvetica;-inkscape-font-specification:Helvetica;writing-mode:lr-tb;fill:#000000;fill-opacity:1;fill-rule:nonzero;stroke:none"
           transform="translate(-3.336914,4)"><tspan
             id="tspan256"
             y="0"
             x="0">o</tspan></text>
</g><path
         id="path260"
         style="fill:#ffffff;fill-opacity:1;fill-rule:nonzero;stroke:none"
         d="m 88.06372,140.2171 h 16.99998 v -24 H 88.06372 Z" /><g
         transform="matrix(1,0,0,-1,96.56372,128.2171)"
         id="g262"><text
           id="text266"
           style="font-variant:normal;font-weight:normal;font-size:12px;font-family:Helvetica;-inkscape-font-specification:Helvetica;writing-mode:lr-tb;fill:#000000;fill-opacity:1;fill-rule:nonzero;stroke:none"
           transform="translate(-3.336914,4)"><tspan
             id="tspan264"
             y="0"
             x="0">o</tspan></text>
</g><path
         id="path268"
         style="fill:#ffffff;fill-opacity:1;fill-rule:nonzero;stroke:none"
         d="m 98.23747,81.46351 h 17.00003 v -24 H 98.23747 Z" /><g
         transform="matrix(1,0,0,-1,106.7375,69.46351)"
         id="g270"><text
           id="text274"
           style="font-variant:normal;font-weight:normal;font-size:12px;font-family:Helvetica;-inkscape-font-specification:Helvetica;writing-mode:lr-tb;fill:#000000;fill-opacity:1;fill-rule:nonzero;stroke:none"
           transform="translate(-3.336914,4)"><tspan
             id="tspan272"
             y="0"
             x="0">o</tspan></text>
</g><path
         id="path276"
         style="fill:#ffffff;fill-opacity:1;fill-rule:nonzero;stroke:none"
         d="m 98.5,224 h 17 v -24 h -17 z" /><g
         transform="matrix(1,0,0,-1,107,212)"
         id="g278"><text
           id="text282"
           style="font-variant:normal;font-weight:normal;font-size:12px;font-family:Helvetica;-inkscape-font-specification:Helvetica;writing-mode:lr-tb;fill:#000000;fill-opacity:1;fill-rule:nonzero;stroke:none"
           transform="translate(-3.336914,4)"><tspan
             id="tspan280"
             y="0"
             x="0">d</tspan></text>
</g><path
         id="path284"
         style="fill:#ffffff;fill-opacity:1;fill-rule:nonzero;stroke:none"
         d="m 185.5,224 h 35 v -24 h -35 z" /><g
         transform="matrix(1,0,0,-1,203,212)"
         id="g286"><text
           id="text290"
           style="font-variant:normal;font-weight:normal;font-size:12px;font-family:Helvetica;-inkscape-font-specification:Helvetica;writing-mode:lr-tb;fill:#000000;fill-opacity:1;fill-rule:nonzero;stroke:none"
           transform="translate(-12.34863,4)"><tspan
             id="tspan288"
             y="0"
             x="0 4.0079999 10.6824 14.016 20.690399">{d,n}</tspan></text>
</g><path
         id="path292"
         style="fill:#ffffff;fill-opacity:1;fill-rule:nonzero;stroke:none"
         d="m 283.5,224 h 35 v -24 h -35 z" /><g
         transform="matrix(1,0,0,-1,301,212)"
         id="g294"><text
           id="text298"
           style="font-variant:normal;font-weight:normal;font-size:12px;font-family:Helvetica;-inkscape-font-specification:Helvetica;writing-mode:lr-tb;fill:#000000;fill-opacity:1;fill-rule:nonzero;stroke:none"
           transform="translate(-12.34863,4)"><tspan
             id="tspan296"
             y="0"
             x="0 4.0079999 10.6824 14.016 20.690399">{d,n}</tspan></text>
</g><path
         id="path300"
         style="fill:#ffffff;fill-opacity:1;fill-rule:nonzero;stroke:none"
         d="m 103.5,173 h 17 v -24 h -17 z" /><g
         transform="matrix(1,0,0,-1,112,161)"
         id="g302"><text
           id="text306"
           style="font-variant:normal;font-weight:normal;font-size:12px;font-family:Helvetica;-inkscape-font-specification:Helvetica;writing-mode:lr-tb;fill:#000000;fill-opacity:1;fill-rule:nonzero;stroke:none"
           transform="translate(-3.336914,4)"><tspan
             id="tspan304"
             y="0"
             x="0">n</tspan></text>
</g><path
         id="path308"
         style="fill:#ffffff;fill-opacity:1;fill-rule:nonzero;stroke:none"
         d="m 195.5,169 h 17 v -24 h -17 z" /><g
         transform="matrix(1,0,0,-1,204,157)"
         id="g310"><text
           id="text314"
           style="font-variant:normal;font-weight:normal;font-size:12px;font-family:Helvetica;-inkscape-font-specification:Helvetica;writing-mode:lr-tb;fill:#000000;fill-opacity:1;fill-rule:nonzero;stroke:none"
           transform="translate(-3.336914,4)"><tspan
             id="tspan312"
             y="0"
             x="0">d</tspan></text>
</g><path
         id="path316"
         style="fill:#ffffff;fill-opacity:1;fill-rule:nonzero;stroke:none"
         d="m 290,164.5 h 17 v -24 h -17 z" /><g
         transform="matrix(1,0,0,-1,298.5,152.5)"
         id="g318"><text
           id="text322"
           style="font-variant:normal;font-weight:normal;font-size:12px;font-family:Helvetica;-inkscape-font-specification:Helvetica;writing-mode:lr-tb;fill:#000000;fill-opacity:1;fill-rule:nonzero;stroke:none"
           transform="translate(-3.336914,4)"><tspan
             id="tspan320"
             y="0"
             x="0">d</tspan></text>
</g><path
         id="path324"
         style="fill:#ffffff;fill-opacity:1;fill-rule:nonzero;stroke:none"
         d="m 191.5,125 h 17 v -24 h -17 z" /><g
         transform="matrix(1,0,0,-1,200,113)"
         id="g326"><text
           id="text330"
           style="font-variant:normal;font-weight:normal;font-size:12px;font-family:Helvetica;-inkscape-font-specification:Helvetica;writing-mode:lr-tb;fill:#000000;fill-opacity:1;fill-rule:nonzero;stroke:none"
           transform="translate(-3.336914,4)"><tspan
             id="tspan328"
             y="0"
             x="0">n</tspan></text>
</g></g></g></svg>