<?xml version="1.0" encoding="UTF-8" standalone="no"?>
<svg
   xmlns:dc="http://purl.org/dc/elements/1.1/"
   xmlns:cc="http://creativecommons.org/ns#"
   xmlns:rdf="http://www.w3.org/1999/02/22-rdf-syntax-ns#"
   xmlns:svg="http://www.w3.org/2000/svg"
   xmlns="http://www.w3.org/2000/svg"
   viewBox="0 0 536 162.66667"
   height="162.66667"
   width="536"
   xml:space="preserve"
   id="svg2"
   version="1.1"><metadata
     id="metadata8"><rdf:RDF><cc:Work
         rdf:about=""><dc:format>image/svg+xml</dc:format><dc:type
           rdf:resource="http://purl.org/dc/dcmitype/StillImage" /></cc:Work></rdf:RDF></metadata><defs
     id="defs6" /><g
     transform="matrix(1.3333333,0,0,-1.3333333,0,162.66667)"
     id="g10"><g
       id="g12" /><g
       id="g14"><path
         id="path16"
         style="fill:#ffffff;fill-opacity:1;fill-rule:nonzero;stroke:none"
         d="m -51.5,-604.5 h 559 v 783 h -559 z" /><g
         transform="matrix(1,0,0,-1,22,16)"
         id="g18"><text
           id="text22"
           style="font-variant:normal;font-weight:normal;font-size:12px;font-family:Helvetica;-inkscape-font-specification:Helvetica;writing-mode:lr-tb;fill:#000000;fill-opacity:1;fill-rule:nonzero;stroke:none"
           transform="translate(-3.336914,4)"><tspan
             id="tspan20"
             y="0"
             x="0">0</tspan></text>
</g><g
         transform="matrix(1,0,0,-1,162.5,16)"
         id="g24"><text
           id="text28"
           style="font-variant:normal;font-weight:normal;font-size:12px;font-family:Helvetica;-inkscape-font-specification:Helvetica;writing-mode:lr-tb;fill:#000000;fill-opacity:1;fill-rule:nonzero;stroke:none"
           transform="translate(-6.673828,4)"><tspan
             id="tspan26"
             y="0"
             x="0 6.6743999">60</tspan></text>
</g><g
         transform="matrix(1,0,0,-1,310,16)"
         id="g30"><text
           id="text34"
           style="font-variant:normal;font-weight:normal;font-size:12px;font-family:Helvetica;-inkscape-font-specification:Helvetica;writing-mode:lr-tb;fill:#000000;fill-opacity:1;fill-rule:nonzero;stroke:none"
           transform="translate(-10.01074,4)"><tspan
             id="tspan32"
             y="0"
             x="0 6.6743999 13.3488">120</tspan></text>
</g><g
         transform="matrix(1,0,0,-1,94,16)"
         id="g36"><text
           id="text40"
           style="font-variant:normal;font-weight:normal;font-size:12px;font-family:Helvetica;-inkscape-font-specification:Helvetica;writing-mode:lr-tb;fill:#000000;fill-opacity:1;fill-rule:nonzero;stroke:none"
           transform="translate(-6.673828,4)"><tspan
             id="tspan38"
             y="0"
             x="0 6.6743999">30</tspan></text>
</g><g
         transform="matrix(1,0,0,-1,238,16)"
         id="g42"><text
           id="text46"
           style="font-variant:normal;font-weight:normal;font-size:12px;font-family:Helvetica;-inkscape-font-specification:Helvetica;writing-mode:lr-tb;fill:#000000;fill-opacity:1;fill-rule:nonzero;stroke:none"
           transform="translate(-6.673828,4)"><tspan
             id="tspan44"
             y="0"
             x="0 6.6743999">90</tspan></text>
</g><path
         id="path48"
         style="fill:#ffffff;fill-opacity:1;fill-rule:nonzero;stroke:none"
         d="M 21.25,33.5 H 165.5 v 54 H 21.25 Z" /><g
         transform="matrix(1,0,0,-1,-50.5,177.5)"
         id="g50"><path
           id="path52"
           style="fill:none;stroke:#000000;stroke-width:1;stroke-linecap:round;stroke-linejoin:round;stroke-miterlimit:10;stroke-dasharray:none;stroke-opacity:1"
           d="M 71.75,90 H 216 v 54 H 71.75 Z" /></g><g
         transform="matrix(1,0,0,-1,92.875,61)"
         id="g54"><text
           id="text58"
           style="font-variant:normal;font-weight:normal;font-size:12px;font-family:Helvetica;-inkscape-font-specification:Helvetica;writing-mode:lr-tb;fill:#000000;fill-opacity:1;fill-rule:nonzero;stroke:none"
           transform="translate(-14.68066,4)"><tspan
             id="tspan56"
             y="0"
             x="0 6.6743999 9.3408003 16.0152 22.6896">piano</tspan></text>
</g><path
         id="path60"
         style="fill:#ffffff;fill-opacity:1;fill-rule:nonzero;stroke:none"
         d="M 237.75,69.5 H 310 v 18 h -72.25 z" /><g
         transform="matrix(1,0,0,-1,-50.5,177.5)"
         id="g62"><path
           id="path64"
           style="fill:none;stroke:#000000;stroke-width:1;stroke-linecap:round;stroke-linejoin:round;stroke-miterlimit:10;stroke-dasharray:none;stroke-opacity:1"
           d="m 288.25,90 h 72.25 v 18 h -72.25 z" /></g><g
         transform="matrix(1,0,0,-1,273.375,79)"
         id="g66"><text
           id="text70"
           style="font-variant:normal;font-weight:normal;font-size:12px;font-family:Helvetica;-inkscape-font-specification:Helvetica;writing-mode:lr-tb;fill:#000000;fill-opacity:1;fill-rule:nonzero;stroke:none"
           transform="translate(-27.35449,4)"><tspan
             id="tspan68"
             y="0"
             x="0 6 8.6664 15.3408 22.0152 24.681601 31.356001 34.689602 41.363998 48.038399">single bed</tspan></text>
</g><path
         id="path72"
         style="fill:#ffffff;fill-opacity:1;fill-rule:nonzero;stroke:none"
         d="M 21.25,87.5 H 58.5 v 18 H 21.25 Z" /><g
         transform="matrix(1,0,0,-1,-50.5,177.5)"
         id="g74"><path
           id="path76"
           style="fill:none;stroke:#000000;stroke-width:1;stroke-linecap:round;stroke-linejoin:round;stroke-miterlimit:10;stroke-dasharray:none;stroke-opacity:1"
           d="M 71.75,72 H 109 V 90 H 71.75 Z" /></g><g
         transform="matrix(1,0,0,-1,39.375,97)"
         id="g78"><text
           id="text82"
           style="font-variant:normal;font-weight:normal;font-size:12px;font-family:Helvetica;-inkscape-font-specification:Helvetica;writing-mode:lr-tb;fill:#000000;fill-opacity:1;fill-rule:nonzero;stroke:none"
           transform="translate(-13.00488,4)"><tspan
             id="tspan80"
             y="0"
             x="0 6 12.6744 19.348801 22.0152">chair</tspan></text>
</g><path
         id="path84"
         style="fill:#ffffff;fill-opacity:1;fill-rule:nonzero;stroke:none"
         d="m 56,87.5 h 37.25 v 18 H 56 Z" /><g
         transform="matrix(1,0,0,-1,-50.5,177.5)"
         id="g86"><path
           id="path88"
           style="fill:none;stroke:#000000;stroke-width:1;stroke-linecap:round;stroke-linejoin:round;stroke-miterlimit:10;stroke-dasharray:none;stroke-opacity:1"
           d="m 106.5,72 h 37.25 V 90 H 106.5 Z" /></g><g
         transform="matrix(1,0,0,-1,74.125,97)"
         id="g90"><text
           id="text94"
           style="font-variant:normal;font-weight:normal;font-size:12px;font-family:Helvetica;-inkscape-font-specification:Helvetica;writing-mode:lr-tb;fill:#000000;fill-opacity:1;fill-rule:nonzero;stroke:none"
           transform="translate(-13.00488,4)"><tspan
             id="tspan92"
             y="0"
             x="0 6 12.6744 19.348801 22.0152">chair</tspan></text>
</g><g
         transform="matrix(1,0,0,-1,13,34)"
         id="g96"><text
           id="text100"
           style="font-variant:normal;font-weight:normal;font-size:12px;font-family:Helvetica;-inkscape-font-specification:Helvetica;writing-mode:lr-tb;fill:#000000;fill-opacity:1;fill-rule:nonzero;stroke:none"
           transform="translate(-3.336914,4)"><tspan
             id="tspan98"
             y="0"
             x="0">0</tspan></text>
</g><g
         transform="matrix(1,0,0,-1,13,52)"
         id="g102"><text
           id="text106"
           style="font-variant:normal;font-weight:normal;font-size:12px;font-family:Helvetica;-inkscape-font-specification:Helvetica;writing-mode:lr-tb;fill:#000000;fill-opacity:1;fill-rule:nonzero;stroke:none"
           transform="translate(-3.336914,4)"><tspan
             id="tspan104"
             y="0"
             x="0">1</tspan></text>
</g><g
         transform="matrix(1,0,0,-1,13,70)"
         id="g108"><text
           id="text112"
           style="font-variant:normal;font-weight:normal;font-size:12px;font-family:Helvetica;-inkscape-font-specification:Helvetica;writing-mode:lr-tb;fill:#000000;fill-opacity:1;fill-rule:nonzero;stroke:none"
           transform="translate(-3.336914,4)"><tspan
             id="tspan110"
             y="0"
             x="0">2</tspan></text>
</g><g
         transform="matrix(1,0,0,-1,13,88)"
         id="g114"><text
           id="text118"
           style="font-variant:normal;font-weight:normal;font-size:12px;font-family:Helvetica;-inkscape-font-specification:Helvetica;writing-mode:lr-tb;fill:#000000;fill-opacity:1;fill-rule:nonzero;stroke:none"
           transform="translate(-3.336914,4)"><tspan
             id="tspan116"
             y="0"
             x="0">3</tspan></text>
</g><g
         transform="matrix(1,0,0,-1,13,106)"
         id="g120"><text
           id="text124"
           style="font-variant:normal;font-weight:normal;font-size:12px;font-family:Helvetica;-inkscape-font-specification:Helvetica;writing-mode:lr-tb;fill:#000000;fill-opacity:1;fill-rule:nonzero;stroke:none"
           transform="translate(-3.336914,4)"><tspan
             id="tspan122"
             y="0"
             x="0">4</tspan></text>
</g><path
         id="path126"
         style="fill:#ffffff;fill-opacity:1;fill-rule:nonzero;stroke:none"
         d="m 165.5,33.5 h 108.25 v 36 H 165.5 Z" /><g
         transform="matrix(1,0,0,-1,-50.5,177.5)"
         id="g128"><path
           id="path130"
           style="fill:none;stroke:#000000;stroke-width:1;stroke-linecap:round;stroke-linejoin:round;stroke-miterlimit:10;stroke-dasharray:none;stroke-opacity:1"
           d="m 216,108 h 108.25 v 36 H 216 Z" /></g><g
         transform="matrix(1,0,0,-1,219.125,52)"
         id="g132"><text
           id="text136"
           style="font-variant:normal;font-weight:normal;font-size:12px;font-family:Helvetica;-inkscape-font-specification:Helvetica;writing-mode:lr-tb;fill:#000000;fill-opacity:1;fill-rule:nonzero;stroke:none"
           transform="translate(-15.00879,4)"><tspan
             id="tspan134"
             y="0"
             x="0 3.3336 7.3295999 9.9960003 16.670401 23.344801">fridge</tspan></text>
</g><path
         id="path138"
         style="fill:#ffffff;fill-opacity:1;fill-rule:nonzero;stroke:none"
         d="m 165.5,69.5 h 72.25 v 36 H 165.5 Z" /><g
         transform="matrix(1,0,0,-1,-50.5,177.5)"
         id="g140"><path
           id="path142"
           style="fill:none;stroke:#000000;stroke-width:1;stroke-linecap:round;stroke-linejoin:round;stroke-miterlimit:10;stroke-dasharray:none;stroke-opacity:1"
           d="m 216,72 h 72.25 v 36 H 216 Z" /></g><g
         transform="matrix(1,0,0,-1,201.125,88)"
         id="g144"><text
           id="text148"
           style="font-variant:normal;font-weight:normal;font-size:12px;font-family:Helvetica;-inkscape-font-specification:Helvetica;writing-mode:lr-tb;fill:#000000;fill-opacity:1;fill-rule:nonzero;stroke:none"
           transform="translate(-29.69531,4)"><tspan
             id="tspan146"
             y="0"
             x="0 6.6743999 13.3488 20.023199 26.697599 29.364 36.038399 39.376801 46.051201 52.725601">double bed</tspan></text>
</g><path
         id="path150"
         style="fill:#ffffff;fill-opacity:1;fill-rule:nonzero;stroke:none"
         d="m 310,33.5 h 49.69849 v 36 H 310 Z" /><g
         transform="matrix(1,0,0,-1,-50.5,177.5)"
         id="g152"><path
           id="path154"
           style="fill:none;stroke:#000000;stroke-width:1;stroke-linecap:round;stroke-linejoin:round;stroke-miterlimit:10;stroke-dasharray:none;stroke-opacity:1"
           d="m 360.5,108 h 49.69849 v 36 H 360.5 Z" /></g><g
         transform="matrix(1,0,0,-1,334.3492,52)"
         id="g156"><text
           id="text160"
           style="font-variant:normal;font-weight:normal;font-size:12px;font-family:Helvetica;-inkscape-font-specification:Helvetica;writing-mode:lr-tb;fill:#000000;fill-opacity:1;fill-rule:nonzero;stroke:none"
           transform="translate(-13.00488,-3)"><tspan
             id="tspan158"
             y="0"
             x="0 8.6664 15.3408 19.3368">ward</tspan></text>
</g><g
         transform="matrix(1,0,0,-1,334.3492,52)"
         id="g162"><text
           id="text166"
           style="font-variant:normal;font-weight:normal;font-size:12px;font-family:Helvetica;-inkscape-font-specification:Helvetica;writing-mode:lr-tb;fill:#000000;fill-opacity:1;fill-rule:nonzero;stroke:none"
           transform="translate(-12.00879,11)"><tspan
             id="tspan164"
             y="0"
             x="0 3.9960001 10.6704 17.344801">robe</tspan></text>
</g><path
         id="path168"
         style="fill:#ffffff;fill-opacity:1;fill-rule:nonzero;stroke:none"
         d="M 272.75,33.5 H 310 v 36 h -37.25 z" /><g
         transform="matrix(1,0,0,-1,-50.5,177.5)"
         id="g170"><path
           id="path172"
           style="fill:none;stroke:#000000;stroke-width:1;stroke-linecap:round;stroke-linejoin:round;stroke-miterlimit:10;stroke-dasharray:none;stroke-opacity:1"
           d="m 323.25,108 h 37.25 v 36 h -37.25 z" /></g><g
         transform="matrix(1,0,0,-1,290.875,52)"
         id="g174"><text
           id="text178"
           style="font-variant:normal;font-weight:normal;font-size:12px;font-family:Helvetica;-inkscape-font-specification:Helvetica;writing-mode:lr-tb;fill:#000000;fill-opacity:1;fill-rule:nonzero;stroke:none"
           transform="translate(-13.01074,4)"><tspan
             id="tspan176"
             y="0"
             x="0 3.3336 10.0032 16.6728 19.3344">table</tspan></text>
</g><g
         transform="matrix(1,0,0,-1,382,16)"
         id="g180"><text
           id="text184"
           style="font-variant:normal;font-weight:normal;font-size:12px;font-family:Helvetica;-inkscape-font-specification:Helvetica;writing-mode:lr-tb;fill:#000000;fill-opacity:1;fill-rule:nonzero;stroke:none"
           transform="translate(-10.01074,4)"><tspan
             id="tspan182"
             y="0"
             x="0 6.6743999 13.3488">150</tspan></text>
</g></g></g></svg>